<svg width="320" height="229" viewBox="0 0 320 229" fill="none" xmlns="http://www.w3.org/2000/svg">
<path d="M296.958 30.2416L299.004 30.4948L298.224 31.4025L299.402 31.3563L299.185 31.8935L299.707 31.8051L298.767 33.5333L300.049 32.8338L299.188 34.5036L300.867 33.394L300.795 34.0149L301.611 33.5971L301.858 34.5878L302.349 34.0944C302.347 34.2271 302.35 34.3573 302.359 34.485C302.393 35.0084 302.481 35.5267 302.621 36.0322C302.812 35.5645 303.048 35.1152 303.328 34.6906C303.417 34.5539 303.511 34.4207 303.606 34.2963L303.804 34.8309L304.42 34.2757L304.998 35.8145L305.798 33.9206L306.632 34.9336L306.754 34.3854C306.896 34.5869 307.051 34.786 307.211 34.9888C307.711 35.6033 308.262 36.1765 308.86 36.7025C308.543 36.0167 308.284 35.3067 308.085 34.5793C308.064 34.4566 308.021 34.3421 307.996 34.2202L309.052 34.943L308.724 33.4476L310.878 34.3678L309.628 32.6947L313.526 34.2891L310.829 31.8466L312.123 32.1506L311.082 31.1591L313.592 31.4283L311.257 30.1013L312.417 29.9499L311.429 29.4364L314.471 28.8717L312.357 28.3279L313.837 27.8564L311.815 27.3601L312.833 26.809L311.805 26.5819L315.15 24.8025L311.848 25.2626L312.68 24.4723L311.307 24.6328L312.514 23.4905L310.577 23.8772L311.361 22.3331L310.133 22.9921C310.133 22.9801 310.131 22.9682 310.127 22.957C310.386 22.4103 310.589 21.8413 310.735 21.2578C310.322 21.6751 309.868 22.0538 309.381 22.3888L309.294 22.4488L310.214 20.4669L308.434 21.7558C308.535 21.2609 308.606 20.761 308.647 20.2588C308.286 20.8061 307.882 21.3266 307.44 21.8158L307.295 21.9757L307.619 19.919L306.353 21.486L306.162 20.6887L305.576 21.3651L305.236 19.52L304.531 21.258L304.047 20.551L303.764 21.4194L303.167 20.6503L302.994 21.3064C302.878 21.2042 302.757 21.094 302.633 20.9934C302.251 20.6881 301.84 20.4195 301.404 20.1914C301.564 20.5783 301.689 20.9779 301.779 21.3859L300.884 20.8431L301.265 22.0997L300.266 21.7143L300.497 22.4417L298.334 21.3833L299.678 23.2838L298.777 23.2831L299.235 23.9765L298.47 24.0384L298.903 24.8263L297.419 25.1318L298.511 25.8486L296.77 26.2922L298.21 26.8825L295.193 27.9795L298.502 28.2217C298.501 28.2292 298.502 28.2368 298.506 28.2436L297.122 29.0596L298.399 29.2942L296.958 30.2416ZM299.555 27.6827C299.56 27.5196 299.557 27.3396 299.571 27.1435C299.594 26.9332 299.628 26.7241 299.675 26.5172C299.786 26.0063 299.984 25.5158 300.26 25.0654C300.581 24.5272 301.004 24.0516 301.507 23.6639C302.074 23.2202 302.73 22.8956 303.432 22.7111C304.18 22.5099 304.962 22.4698 305.723 22.5936C306.519 22.7152 307.273 23.0116 307.929 23.4601C308.584 23.9087 309.123 24.4975 309.504 25.1815C309.701 25.5143 309.852 25.8705 309.955 26.2415C310.02 26.4333 310.014 26.5921 310.075 26.7621C310.116 26.943 310.147 27.1258 310.168 27.31C310.216 28.0068 310.114 28.7074 309.868 29.3673C309.652 29.9517 309.326 30.4933 308.906 30.964C308.555 31.3635 308.14 31.705 307.676 31.9748C307.489 32.0856 307.296 32.1861 307.097 32.2758C306.909 32.3527 306.732 32.4097 306.574 32.4681C306.328 32.5432 306.077 32.5979 305.822 32.6315L305.554 32.6768L305.812 32.6016C306.055 32.5283 306.293 32.4414 306.525 32.3412L306.996 32.0945C307.175 31.9875 307.347 31.8711 307.512 31.7457C307.909 31.4534 308.257 31.1038 308.545 30.7095C308.882 30.259 309.14 29.7583 309.307 29.2277C309.48 28.6316 309.533 28.0104 309.464 27.3976C309.447 27.2414 309.421 27.0863 309.385 26.933C309.351 26.7668 309.306 26.6028 309.251 26.4418C309.202 26.298 309.144 26.1573 309.077 26.0204C309.01 25.8696 308.934 25.723 308.848 25.5812C308.759 25.432 308.661 25.2875 308.556 25.1483C308.536 25.4377 308.442 25.7186 308.282 25.9649C308.121 26.2112 307.899 26.415 307.637 26.5574C307.735 26.6546 307.808 26.7734 307.85 26.9039C307.891 27.0345 307.9 27.1731 307.875 27.3082C307.85 27.4433 307.792 27.5711 307.706 27.6811C307.621 27.791 307.509 27.8799 307.381 27.9405C307.254 28.001 307.113 28.0314 306.972 28.0291C306.83 28.0269 306.692 27.9921 306.567 27.9275C306.443 27.863 306.337 27.7707 306.258 27.6581C306.178 27.5456 306.128 27.416 306.111 27.2802C306.076 27.0723 306.123 26.8585 306.243 26.6807C305.896 26.5768 305.592 26.3716 305.371 26.0931C305.151 25.8146 305.025 25.4762 305.012 25.1239C304.998 24.7717 305.097 24.4226 305.294 24.1242C305.492 23.8257 305.779 23.5923 306.117 23.4557C305.944 23.4037 305.769 23.3611 305.591 23.3284C304.948 23.2151 304.286 23.2278 303.644 23.3658C303.003 23.5039 302.395 23.7644 301.857 24.1321C301.392 24.4583 300.986 24.8579 300.657 25.3138C300.367 25.705 300.139 26.1358 299.981 26.5915C299.912 26.7821 299.856 26.9769 299.814 27.1744C299.776 27.3613 299.753 27.5319 299.728 27.685C299.703 27.9293 299.695 28.1747 299.703 28.4196L299.714 28.6792C299.714 28.6792 299.699 28.5916 299.67 28.4206C299.608 28.179 299.568 27.9324 299.55 27.6835L299.555 27.6827Z" fill="white" fill-opacity="0.2"/>
<path d="M265.328 41.5411L264.673 41.5574L265.324 41.6231C265.494 41.6521 265.665 41.6712 265.838 41.6803C266.668 41.7322 267.502 41.7295 268.334 41.6723C269.174 41.5871 270.009 41.4533 270.834 41.2715C271.765 41.0628 272.685 40.8033 273.587 40.4941C273.909 40.381 274.22 40.2607 274.517 40.1426C274.599 40.21 274.716 40.2983 274.867 40.4126C274.457 40.7525 273.986 41.1389 273.554 41.5368C272.875 42.1885 272.247 42.8886 271.677 43.6311C271.215 44.2369 270.945 44.6568 270.945 44.6568C270.945 44.6568 271.31 44.302 271.897 43.8283C272.605 43.2525 273.358 42.7314 274.149 42.27C274.407 42.1182 274.667 41.9749 274.931 41.8401C274.838 41.9235 274.74 42.0077 274.652 42.0947C273.889 42.8557 273.261 43.7331 272.795 44.6907C272.701 44.8824 272.623 45.0579 272.562 45.2215C272.501 45.3851 272.445 45.5209 272.409 45.6397L272.289 46.0072L272.485 45.672C272.541 45.5633 272.627 45.4404 272.72 45.2985C272.825 45.1403 272.938 44.9873 273.058 44.84C273.676 44.0487 274.426 43.3623 275.277 42.8094C275.721 42.523 276.187 42.2707 276.671 42.0548C276.82 41.9936 276.963 41.9332 277.109 41.8815L277.208 41.9414C276.757 42.28 276.334 42.6531 275.945 43.0571C275.33 43.6988 274.803 44.414 274.377 45.1847C274.205 45.4934 274.083 45.7621 274.002 45.9471L273.879 46.2429L274.074 45.9846C274.201 45.8277 274.382 45.5987 274.624 45.3502C275.742 44.1723 277.146 43.2844 278.706 42.7697L278.783 42.8108L278.319 43.1554C277.812 43.5686 277.333 44.0142 276.887 44.489C276.085 45.3744 275.423 46.3696 274.922 47.4414C274.819 47.6573 274.731 47.857 274.664 48.0397C274.597 48.2224 274.529 48.3737 274.494 48.5195L274.362 48.9295L274.568 48.5475C274.632 48.4284 274.725 48.2865 274.828 48.1247C274.931 47.9629 275.046 47.7857 275.208 47.6095C275.875 46.6948 276.682 45.883 277.601 45.2023C278.082 44.8478 278.588 44.5257 279.114 44.2382C279.55 44.0111 279.999 43.8086 280.458 43.6317L280.726 43.7532C280.581 43.9131 280.437 44.0818 280.301 44.276C279.959 44.727 279.672 45.2145 279.446 45.7285C279.346 45.9558 279.261 46.1886 279.19 46.4256C279.347 46.2364 279.516 46.0571 279.697 45.8889C280.073 45.5344 280.491 45.2231 280.94 44.9614C281.338 44.7337 281.758 44.5476 282.195 44.4061L282.266 44.4348C282.155 44.5798 282.049 44.7285 281.95 44.8851C281.663 45.313 281.418 45.7651 281.217 46.2356C281.058 46.6188 280.98 46.8798 280.98 46.8798C280.98 46.8798 281.165 46.6728 281.468 46.396C281.831 46.066 282.225 45.7684 282.643 45.5071C282.919 45.3365 283.205 45.1812 283.498 45.0421C283.19 45.4356 282.911 45.849 282.662 46.2794C282.207 47.0793 281.881 47.9405 281.694 48.833C281.631 49.1203 281.587 49.4109 281.561 49.7032L281.533 50.0326L281.643 49.7164C281.736 49.4461 281.847 49.1817 281.976 48.9251C282.356 48.1565 282.855 47.4472 283.454 46.8216C283.961 46.2949 284.533 45.8313 285.158 45.4419L285.802 45.6349C285.753 45.7018 285.698 45.7652 285.654 45.8358C285.183 46.5301 284.853 47.3038 284.682 48.1151C284.649 48.2677 284.627 48.4221 284.615 48.5773C284.6 48.7105 284.587 48.8211 284.584 48.9162L284.573 49.2111L284.666 48.9338C284.7 48.8265 284.742 48.7215 284.791 48.6197C284.842 48.4847 284.904 48.3536 284.976 48.2276C285.329 47.5572 285.811 46.9569 286.395 46.4588C286.594 46.2913 286.805 46.1366 287.026 45.9957C287.431 46.1029 287.851 46.2077 288.278 46.3066C288.112 46.6619 287.971 47.0277 287.857 47.4015C287.619 48.2002 287.515 49.0292 287.549 49.8569C287.558 50.1229 287.586 50.3879 287.632 50.6499L287.682 50.9435C287.682 50.9435 287.696 50.833 287.715 50.6448C287.743 50.3881 287.789 50.1334 287.852 49.8822C288.144 48.6533 288.773 47.5199 289.673 46.6025L290.116 46.6852C290.036 46.8702 289.961 47.0632 289.9 47.2539C289.655 47.9947 289.534 48.7671 289.541 49.5421C289.538 49.7898 289.555 50.0372 289.591 50.282C289.621 50.4573 289.638 50.5581 289.638 50.5581L289.684 50.2798C289.721 50.0415 289.776 49.806 289.85 49.5754C290.053 48.8905 290.369 48.2403 290.784 47.6497C290.971 47.385 291.178 47.1344 291.404 46.9C291.922 46.9791 292.447 47.0524 292.986 47.1145C292.953 47.3365 292.924 47.5759 292.909 47.7947C292.86 48.5004 292.902 49.2082 293.033 49.902C293.087 50.2095 293.162 50.5131 293.257 50.8109C293.265 50.5049 293.291 50.1994 293.335 49.8959C293.43 49.2477 293.607 48.6123 293.86 48.0035C293.96 47.7505 294.074 47.5024 294.201 47.2604C294.774 47.3121 295.356 47.3534 295.948 47.3793C295.886 47.669 295.839 47.9614 295.807 48.2553C295.735 48.9605 295.755 49.6706 295.866 50.369C295.913 50.6773 295.98 50.9821 296.068 51.2817C296.08 50.9738 296.114 50.6668 296.169 50.3628C296.343 49.3173 296.742 48.3161 297.338 47.4235L298.221 47.4316C298.242 47.6324 298.276 47.8315 298.322 48.0277C298.358 48.2029 298.404 48.3757 298.461 48.5453C298.565 48.1546 298.721 47.7781 298.925 47.4252C299.553 47.4134 300.185 47.3922 300.833 47.3591C300.829 47.7786 300.855 48.1975 300.91 48.613C301.012 49.3424 301.207 50.056 301.489 50.7378C301.579 50.9585 301.681 51.1745 301.795 51.3849L301.923 51.6201C301.857 51.3065 301.811 50.989 301.786 50.6695C301.734 49.9824 301.773 49.2908 301.904 48.6115C301.988 48.1502 302.113 47.6962 302.276 47.2544C302.7 47.2187 303.127 47.178 303.563 47.1312L304.406 50.2077L304.821 46.9812C305.347 46.8921 305.887 46.8277 306.423 46.737C306.668 47.0649 306.894 47.4059 307.1 47.7585C307.571 48.5547 307.957 49.3955 308.254 50.2684C308.254 50.2684 308.264 49.9194 308.241 49.3688C308.212 48.714 308.136 48.0625 308.014 47.4189C307.959 47.0989 307.883 46.7828 307.804 46.485L308.535 46.3612C308.676 46.4771 308.818 46.5974 308.958 46.7404C309.351 47.0869 309.691 47.4843 309.971 47.9216C310.053 48.0689 310.113 48.2274 310.149 48.3919C310.165 48.4567 310.176 48.5226 310.182 48.5892C310.208 48.5254 310.23 48.4599 310.247 48.3933C310.286 48.2089 310.296 48.0202 310.278 47.8335C310.188 47.2737 310.022 46.7288 309.784 46.2128L309.743 46.1341L310.642 45.9322C311.002 46.2019 311.342 46.4954 311.659 46.8105C312.162 47.3443 312.605 47.9281 312.982 48.5524C313.156 48.8435 313.314 49.1432 313.456 49.4505C313.419 49.1099 313.361 48.7718 313.284 48.438C313.101 47.6899 312.834 46.9641 312.488 46.2733C312.36 46.0154 312.216 45.7693 312.072 45.5277L313.074 45.2678C313.806 45.8018 314.367 46.5253 314.693 47.3563C314.77 47.5482 314.832 47.7458 314.877 47.9473C314.902 48.0963 314.916 48.1796 314.916 48.1796L314.946 47.9401C314.974 47.7274 314.985 47.513 314.977 47.2991C314.955 46.6228 314.806 45.9575 314.538 45.3356C314.476 45.1927 314.406 45.0558 314.336 44.9188L315.258 44.6545C315.319 44.6847 315.385 44.7142 315.457 44.756C315.887 44.9781 316.286 45.2513 316.645 45.5693C317.023 45.9007 317.355 46.2778 317.634 46.6914C317.768 46.8842 317.889 47.085 317.997 47.2927C317.986 47.0536 317.96 46.8156 317.918 46.5801C317.827 46.0453 317.668 45.5241 317.445 45.028C317.307 44.718 317.145 44.4183 316.962 44.1314L317.706 43.8927C317.963 44.0914 318.2 44.3122 318.415 44.5526C318.772 44.9492 319.07 45.3917 319.301 45.868C319.409 46.0939 319.502 46.3268 319.578 46.5651C319.599 46.3106 319.605 46.0552 319.593 45.8005C319.568 45.2169 319.46 44.6404 319.27 44.0877C319.194 43.8743 319.107 43.6648 319.01 43.46L320.297 43.012C320.683 43.2605 321.043 43.5436 321.374 43.8576C321.652 44.1216 321.821 44.3185 321.821 44.3185C321.769 44.1095 321.706 43.9034 321.632 43.7012C321.509 43.352 321.358 43.0128 321.18 42.6866L322.326 42.258C322.852 42.4369 323.359 42.6619 323.841 42.9304C323.65 42.581 323.437 42.2437 323.203 41.9202C323.733 41.7133 324.257 41.5027 324.772 41.2893C324.942 41.3786 325.103 41.4825 325.254 41.5999C325.407 41.715 325.55 41.8415 325.682 41.9782C325.637 41.7887 325.578 41.6029 325.504 41.4223C325.457 41.3129 325.394 41.1883 325.326 41.0601C332.398 38.1161 339.172 34.5306 345.557 30.352L347.39 29.1037L345.305 28.3702C343.318 27.6608 342.938 27.5402 336.726 22.7264C335.192 21.5344 333.589 20.427 331.925 19.4094C332.179 19.1978 332.408 18.9594 332.608 18.6986C332.717 18.5569 332.815 18.4076 332.901 18.2522C332.747 18.3338 332.587 18.406 332.424 18.4682C332.08 18.5954 331.719 18.6761 331.354 18.7081C331.144 18.7257 330.933 18.7252 330.723 18.7067C330.454 18.5538 330.204 18.3978 329.914 18.2576C330.137 18.0349 330.335 17.7897 330.504 17.5263C330.788 17.0844 330.976 16.5923 331.058 16.08C331.082 15.9197 331.094 15.7579 331.093 15.5961C331.073 15.4822 331.063 15.4208 331.063 15.4208L330.988 15.5824C330.92 15.7214 330.841 15.8553 330.752 15.983C330.495 16.3487 330.163 16.6597 329.777 16.8966C329.424 17.1142 329.029 17.2607 328.617 17.3274C328.493 17.3503 328.366 17.3611 328.24 17.3598L328.145 17.3759L327.79 17.2106C328.039 16.9261 328.254 16.6159 328.432 16.2858C328.723 15.7665 328.906 15.1976 328.97 14.612C328.987 14.4285 328.99 14.2441 328.979 14.0604L328.945 13.8588L328.879 14.0502C328.821 14.2188 328.747 14.3822 328.659 14.5385C328.419 14.9738 328.093 15.36 327.7 15.6749C327.307 15.9898 326.855 16.2272 326.369 16.3736C326.273 16.3955 326.176 16.4119 326.079 16.4228L326.029 16.4042C326.215 16.1378 326.38 15.8582 326.522 15.5677C326.78 15.0426 326.951 14.4826 327.03 13.9081C327.067 13.6575 327.082 13.4046 327.075 13.152C326.975 13.3835 326.857 13.6071 326.721 13.8206C326.205 14.68 325.439 15.3747 324.519 15.8167L323.793 15.5519C324.144 15.1526 324.46 14.7265 324.74 14.2779C325.135 13.6388 325.443 12.953 325.655 12.2383C325.737 11.9538 325.789 11.7105 325.822 11.5427C325.854 11.3749 325.87 11.2775 325.87 11.2775L325.743 11.5199C325.661 11.6691 325.542 11.8785 325.378 12.1228C324.606 13.2641 323.545 14.1969 322.298 14.8312L322.018 14.9688L321.453 14.803L321.594 14.6167C321.951 14.0997 322.216 13.5289 322.378 12.9286C322.427 12.7367 322.464 12.5422 322.489 12.3461L322.513 12.1301L322.406 12.3241C322.319 12.4989 322.218 12.6668 322.103 12.8262C321.773 13.2771 321.366 13.6709 320.9 13.9904C320.63 14.1689 320.343 14.3231 320.044 14.4509C319.587 14.3391 319.126 14.2368 318.666 14.1432C318.749 13.9941 318.834 13.8354 318.91 13.6782C319.168 13.1667 319.39 12.6394 319.576 12.1C319.717 11.6657 319.789 11.374 319.789 11.374C319.301 12.006 318.752 12.5914 318.148 13.1219C317.845 13.3867 317.527 13.6348 317.195 13.8648C316.788 13.8031 316.381 13.7413 315.971 13.6934C316.117 13.2079 316.227 12.7132 316.299 12.2131C316.389 11.5543 316.409 10.8892 316.36 10.2279C316.312 9.69505 316.243 9.34594 316.243 9.34594C316.243 9.34594 316.19 9.69312 316.056 10.1982C315.89 10.8007 315.659 11.3854 315.367 11.9427C315.084 12.4826 314.745 12.9933 314.355 13.4667L314.316 13.5138L313.579 13.4628C313.594 13.1628 313.596 12.8467 313.58 12.5294C313.557 11.9217 313.486 11.3172 313.367 10.7213C313.285 10.2392 313.177 9.93281 313.177 9.93281C313.177 9.93281 313.148 10.2578 313.061 10.7326C312.959 11.3027 312.811 11.8645 312.617 12.4129C312.498 12.743 312.361 13.0671 312.207 13.384C311.771 13.3722 311.327 13.3707 310.889 13.3729C310.01 12.4663 309.318 11.4058 308.847 10.2469C308.633 9.72856 308.529 9.36291 308.529 9.36291C308.529 9.36291 308.514 9.73977 308.55 10.3152C308.598 11.0253 308.717 11.7284 308.906 12.4147C309.002 12.7636 309.121 13.1042 309.246 13.4302L308.996 13.441C307.954 12.456 307.127 11.2778 306.565 9.97516C306.417 9.64048 306.289 9.29791 306.181 8.94905C306.191 9.31821 306.22 9.68641 306.27 10.0522C306.38 10.8767 306.585 11.6858 306.879 12.4649C307.021 12.8442 307.185 13.2153 307.371 13.5765L307.153 13.6134L306.761 13.3415C305.295 12.2892 304.104 10.9199 303.283 9.34069C303.11 9.00926 302.987 8.72351 302.898 8.50404L302.769 8.18323C302.769 8.18323 302.79 8.30595 302.826 8.52073C302.863 8.7355 302.916 9.05108 302.979 9.42364C303.201 10.3373 303.53 11.2225 303.958 12.0623C304.286 12.6936 304.668 13.297 305.1 13.8664L304.968 13.8887L304.899 13.8373C304.08 13.2248 303.335 12.5252 302.678 11.7516C302.008 10.9627 301.432 10.1031 300.96 9.1885C300.761 8.81193 300.617 8.48465 300.521 8.25281L300.371 7.89046L300.437 8.28056C300.479 8.52602 300.539 8.88104 300.67 9.29621C300.95 10.3217 301.347 11.313 301.852 12.2522C302.223 12.9368 302.646 13.593 303.119 14.2155C302.942 14.2454 302.765 14.2754 302.597 14.3309L302.202 14.0145C301.83 13.7015 301.476 13.3686 301.142 13.0173C300.76 12.6039 300.404 12.1688 300.076 11.7144C299.456 10.8419 298.955 9.89478 298.586 8.89628C298.508 8.68843 298.443 8.49657 298.395 8.32432C298.347 8.15207 298.294 8.00327 298.267 7.89523L298.163 7.50252C298.163 7.50252 298.187 7.64716 298.185 7.90907C298.188 8.03779 298.199 8.1862 298.218 8.35429C298.237 8.52239 298.263 8.72555 298.294 8.96377C298.46 10.0665 298.77 11.1426 299.219 12.1661C299.466 12.7213 299.749 13.2606 300.066 13.781C300.301 14.147 300.532 14.4912 300.761 14.7951C300.464 14.8785 300.167 14.9648 299.871 15.054C299.609 14.9098 299.359 14.7474 299.121 14.5678C298.672 14.2335 298.203 13.8577 297.746 13.4481C296.905 12.7315 296.115 11.9616 295.381 11.1434C294.771 10.4666 294.404 9.97874 294.404 9.97874C294.404 9.97874 294.669 10.5245 295.129 11.3122C295.699 12.2826 296.333 13.2159 297.026 14.1065C297.408 14.5964 297.81 15.0694 298.198 15.5088L298.282 15.5937L297.583 15.8518C297.106 15.6383 296.646 15.3907 296.207 15.111C295.504 14.6641 294.857 14.1397 294.28 13.5481C294.037 13.3007 293.851 13.0842 293.709 12.9325L293.509 12.6869C293.509 12.6869 293.559 12.791 293.636 12.9718C293.714 13.1526 293.847 13.4185 294.02 13.7229C294.445 14.479 294.957 15.1849 295.548 15.8267C295.743 16.0373 295.95 16.2411 296.16 16.4355L295.904 16.5466C294.985 15.9681 294.099 15.3413 293.251 14.6692C292.358 13.9568 291.505 13.1983 290.696 12.3968C290.033 11.7379 289.614 11.2768 289.614 11.2768C289.614 11.2768 289.933 11.809 290.461 12.5808C291.107 13.5304 291.808 14.4444 292.558 15.3186C293.144 16.0219 293.789 16.6882 294.368 17.2665L293.875 17.5214C293.42 17.4001 292.893 17.2369 292.394 17.0464C291.894 16.8558 291.179 16.5713 290.569 16.2822C289.443 15.7431 288.374 15.0997 287.378 14.361C286.962 14.0571 286.636 13.7833 286.407 13.592L286.051 13.2826C286.051 13.2826 286.162 13.4126 286.346 13.6474C286.531 13.8821 286.814 14.2039 287.171 14.5762C288.046 15.5015 289.013 16.342 290.057 17.0859C290.63 17.4938 291.231 17.87 291.81 18.2047L292.232 18.4354L291.783 18.7053C291.497 18.6725 291.191 18.6297 290.879 18.5788C290.234 18.4597 289.6 18.2959 288.98 18.0889C287.799 17.6908 286.691 17.118 285.695 16.3908C285.508 16.258 285.328 16.1154 285.156 15.9636C284.993 15.8289 284.852 15.713 284.746 15.6092L284.406 15.2836L284.685 15.6602C284.771 15.7853 284.888 15.9234 285.027 16.0846C285.174 16.2677 285.332 16.4427 285.499 16.6089C286.393 17.5382 287.432 18.3264 288.579 18.9459C289.112 19.2353 289.665 19.4896 290.234 19.707L289.72 20.0601L289.113 19.7842C288.638 19.5672 288.094 19.2805 287.53 18.9566C286.967 18.6328 286.383 18.2491 285.813 17.8317C284.769 17.0661 283.807 16.2022 282.939 15.2524C282.575 14.8633 282.297 14.5181 282.106 14.2753L281.801 13.8762C281.801 13.8762 281.888 14.0328 282.029 14.2884C282.171 14.544 282.394 14.9525 282.684 15.3993C283.396 16.5126 284.223 17.5524 285.152 18.5028C285.661 19.0253 286.202 19.5198 286.73 19.9668C287.259 20.4138 287.776 20.7951 288.236 21.1096L288.054 21.2486L287.886 21.1915C287.202 20.96 286.428 20.6357 285.605 20.2657C284.781 19.8957 283.934 19.4439 283.104 18.9533C281.573 18.0455 280.142 16.9886 278.835 15.7987C278.565 15.5559 278.321 15.3267 278.117 15.1177C277.914 14.9087 277.726 14.7332 277.559 14.5765L277.102 14.0858L277.492 14.6239C277.616 14.8014 277.775 15.0269 277.955 15.2353C278.135 15.4438 278.347 15.7281 278.594 16.0289C279.759 17.397 281.065 18.6456 282.493 19.7557C283.282 20.3615 284.091 20.9233 284.904 21.4214C285.505 21.7705 286.087 22.1228 286.625 22.4015L286.347 22.6378L286.108 22.5791C285.295 22.37 284.494 22.1204 283.708 21.8313C282.803 21.4916 281.918 21.1057 281.057 20.6752C279.433 19.8505 277.914 18.8494 276.527 17.691C276.239 17.4513 275.982 17.2288 275.764 17.0177C275.546 16.8066 275.345 16.6378 275.206 16.4765L274.727 15.994L275.145 16.5319C275.277 16.7035 275.446 16.9047 275.644 17.1372C275.842 17.3696 276.068 17.6246 276.324 17.8968C277.59 19.2448 279.012 20.4471 280.563 21.4803C281.398 22.0322 282.263 22.5403 283.155 23.0026C283.81 23.3425 284.43 23.6118 285.008 23.8521L284.851 24.0004C284.449 23.9737 284.006 23.9225 283.528 23.8547C282.948 23.7569 282.375 23.6282 281.81 23.4693C280.735 23.1623 279.703 22.7316 278.736 22.1865C278.334 21.9659 278.014 21.7542 277.792 21.6024L277.443 21.3639L277.737 21.6658C277.996 21.9341 278.27 22.1887 278.557 22.4286C279.434 23.1756 280.4 23.8186 281.435 24.3444C281.655 24.456 281.882 24.5573 282.104 24.6549C281.623 24.5696 281.137 24.4536 280.648 24.3245C279.717 24.0664 278.805 23.7526 277.916 23.3849C277.034 23.0016 276.18 22.5619 275.359 22.0685C274.633 21.6296 273.938 21.1449 273.279 20.6174L272.862 20.2821L272.5 19.9646C272.275 19.7638 272.077 19.5855 271.943 19.4322L271.456 18.9512L272.025 19.5267C272.157 19.7026 272.331 19.8987 272.532 20.126L272.856 20.4906C272.974 20.6103 273.099 20.7425 273.234 20.8774C273.835 21.4911 274.478 22.0646 275.159 22.5939C275.95 23.2015 276.782 23.758 277.649 24.2598C278.53 24.7525 279.442 25.1929 280.379 25.5783C281.149 25.8799 281.936 26.1426 282.735 26.3652L282.558 26.562L282.367 26.5628C281.532 26.5601 280.698 26.5086 279.871 26.4084C278.916 26.2811 277.971 26.0916 277.044 25.8411C276.112 25.5829 275.201 25.261 274.318 24.8781C273.54 24.5379 272.789 24.1453 272.069 23.7033L271.616 23.4239L271.219 23.1485C270.971 22.9786 270.75 22.8312 270.586 22.692L270.048 22.2692L270.531 22.751C270.684 22.91 270.881 23.0839 271.111 23.2839C271.222 23.3869 271.343 23.4927 271.474 23.6058C271.605 23.7188 271.749 23.8252 271.895 23.9403C272.562 24.4698 273.268 24.9529 274.007 25.3861C274.869 25.8972 275.77 26.3475 276.7 26.7335C277.202 26.9415 277.738 27.1259 278.26 27.2899C277.499 27.1754 276.707 27.0253 275.923 26.8291C274.973 26.5907 274.039 26.2972 273.127 25.95C272.325 25.6377 271.546 25.2774 270.792 24.871L270.315 24.6182L269.894 24.3692C269.63 24.2112 269.378 24.0779 269.216 23.9476L268.638 23.5675L269.18 24.0122C269.345 24.1557 269.56 24.3222 269.801 24.5068L270.192 24.8057L270.642 25.1173C271.355 25.6179 272.099 26.0746 272.872 26.4846C273.763 26.9566 274.684 27.3758 275.629 27.74C276.585 28.0965 277.562 28.3991 278.555 28.6466C279.119 28.7766 279.661 28.8878 280.171 28.9816C279.618 29.0213 279.001 29.0446 278.349 29.0558C277.467 29.0509 276.586 29.0029 275.71 28.912C274.057 28.7315 272.432 28.3764 270.863 27.8529C270.537 27.7502 270.243 27.6421 269.985 27.5506C269.727 27.4591 269.487 27.3689 269.315 27.2854L268.741 27.0399L269.262 27.3619C269.434 27.4637 269.649 27.5804 269.895 27.7057C270.14 27.831 270.409 27.9883 270.728 28.1327C272.257 28.8697 273.867 29.4438 275.528 29.8447C276.189 29.9988 276.854 30.1207 277.511 30.2257C276.65 30.322 275.732 30.4144 274.817 30.4475C273.185 30.5388 271.551 30.3579 269.988 29.9127C269.468 29.757 268.965 29.5539 268.485 29.3061C268.308 29.2234 268.181 29.1367 268.088 29.0848L267.948 29.0047L268.077 29.1046C268.158 29.1676 268.277 29.2647 268.441 29.3767C268.887 29.6899 269.362 29.9611 269.862 30.1866C271.409 30.8551 273.066 31.2607 274.762 31.3857C275.971 31.4966 277.179 31.5174 278.245 31.5262C277.854 31.6465 277.435 31.7626 276.987 31.8745C275.391 32.2418 273.746 32.3543 272.118 32.2076C271.399 32.1423 270.686 32.0249 269.986 31.8564L269.543 31.751L269.15 31.6328C268.904 31.5573 268.687 31.4903 268.512 31.4207L267.964 31.216L268.477 31.4942C268.638 31.5887 268.846 31.6843 269.084 31.7928L269.459 31.9682L269.889 32.1388C270.579 32.4067 271.288 32.6256 272.012 32.7937C272.853 32.9811 273.708 33.1076 274.569 33.1722C275.219 33.213 275.871 33.2169 276.523 33.1841C275.997 33.4173 275.447 33.6413 274.873 33.8376C274.189 34.0627 273.493 34.2513 272.789 34.4026C272.166 34.5303 271.537 34.6263 270.905 34.6901C270.628 34.737 270.371 34.7354 270.144 34.7468C269.917 34.7582 269.715 34.7745 269.551 34.7707L269.005 34.7729L269.516 34.8441C269.68 34.8706 269.879 34.8909 270.107 34.911C270.334 34.9311 270.582 34.9612 270.878 34.9742C271.528 35.0102 272.18 35.0127 272.831 34.9816C273.582 34.9434 274.331 34.8633 275.073 34.7416C274.813 34.8308 274.553 34.92 274.286 35.0012C272.873 35.4388 271.423 35.7537 269.954 35.9422C269.355 36.0437 268.841 36.0676 268.485 36.0874L267.926 36.1234L268.485 36.1686C268.84 36.1986 269.354 36.2288 269.967 36.2376C271.484 36.263 273.002 36.1568 274.503 35.9204L274.793 35.8712L274.592 35.9504C273.491 36.3405 272.35 36.6123 271.19 36.7609C270.804 36.8155 270.416 36.8512 270.027 36.8677L269.564 36.892L270.004 36.9528C270.286 36.9907 270.69 37.0349 271.18 37.0602C271.852 37.0952 272.526 37.0894 273.199 37.043C272.872 37.1839 272.54 37.3168 272.203 37.4505C271.046 37.8974 269.864 38.2827 268.664 38.6045C267.672 38.8672 267 39.0037 267 39.0037C267 39.0037 267.682 38.9827 268.713 38.8938C269.978 38.7796 271.236 38.5966 272.481 38.3458L272.663 38.3151L272.155 38.5182C270.842 39.0295 269.487 39.4309 268.106 39.7181C267.533 39.8376 267.053 39.8964 266.717 39.9533L266.19 40.0425L266.724 40.0513C267.065 40.0521 267.554 40.0459 268.119 40.0179C269.565 39.94 271.003 39.7418 272.416 39.4254C272.72 39.3739 273.018 39.2829 273.312 39.2015L273.085 39.3211C272.273 39.7193 271.438 40.0715 270.584 40.376C269.054 40.9589 267.454 41.3437 265.824 41.5202C265.66 41.5353 265.494 41.5422 265.328 41.5411ZM316.345 40.3538L316.975 39.7963C318.152 38.692 319.163 37.4338 319.979 36.0593C320.357 35.4311 320.695 34.7806 320.989 34.1117C321.145 33.7966 321.237 33.4564 321.362 33.1467C321.487 32.837 321.596 32.5164 321.667 32.1932C321.739 31.8701 321.818 31.568 321.887 31.2544C321.968 30.9636 322.03 30.6685 322.073 30.3706C322.138 29.7871 322.236 29.2383 322.26 28.7202C322.285 28.2021 322.286 27.7149 322.286 27.2731C322.286 26.8312 322.21 26.4112 322.176 26.0428L322.121 25.5246C322.094 25.3668 322.069 25.2178 322.046 25.0863C322 24.8102 321.937 24.5773 321.895 24.386L321.771 23.8164C321.771 23.8164 321.773 24.0234 321.773 24.4111C321.774 24.6094 321.779 24.861 321.783 25.1309C321.806 25.2667 321.791 25.4227 321.785 25.5815C321.779 25.7403 321.756 25.9109 321.745 26.0888C321.712 26.4504 321.69 26.8419 321.645 27.2644C321.6 27.6869 321.496 28.1464 321.41 28.6343C321.325 29.1222 321.152 29.6203 321.014 30.1532C320.911 30.5089 320.771 30.8707 320.629 31.242C321.794 27.1569 321.259 22.8107 319.139 19.1401C320.121 19.4247 321.225 19.7968 322.322 20.2106C323.719 20.7523 325.086 21.362 326.418 22.0374C327.519 22.5858 328.232 22.9926 328.232 22.9926C328.232 22.9926 327.587 22.4887 326.581 21.7888C325.576 21.0889 324.187 20.1968 322.739 19.3916C322.265 19.1292 321.784 18.8771 321.313 18.6366C322.114 18.8707 322.88 19.1197 323.608 19.3932C325.013 19.8902 326.274 20.4431 327.391 20.9483L328.92 21.7082L330.222 22.3896C330.991 22.823 331.619 23.1448 332.031 23.3953L332.668 23.7383L332.151 23.2261C331.81 22.8916 331.304 22.4137 330.626 21.8252L329.481 20.8829C329.124 20.5917 328.72 20.3039 328.295 19.9972C330.736 21.3064 333.053 22.8176 335.222 24.5141C339.429 27.7737 341.091 28.9847 342.417 29.6754C340.914 30.6153 338.516 32.054 335.486 33.6809L335.904 33.3936C336.986 32.6964 337.897 32.0372 338.641 31.4963C339.385 30.9555 339.958 30.5068 340.35 30.2059L340.937 29.7278C340.937 29.7278 339.999 30.2248 338.362 31.0655C337.954 31.2744 337.502 31.4998 336.998 31.7475C336.494 31.9952 335.97 32.2643 335.391 32.5426C334.813 32.821 334.206 33.1222 333.551 33.418C332.896 33.7137 332.231 34.0608 331.51 34.3769C330.08 35.0337 328.524 35.7122 326.876 36.4286C326.046 36.7675 325.198 37.1322 324.323 37.4788C323.448 37.8253 322.573 38.1719 321.642 38.5233L318.85 39.5374L316.345 40.3538ZM298.506 39.7681L298.465 38.3682L297.484 39.1114L298.177 36.4196L296.379 38.2931C296.364 38.2011 296.403 38.0998 296.418 37.998C296.497 37.5423 296.619 37.0943 296.784 36.66C296.35 36.9147 295.944 37.2117 295.571 37.5463L295.523 37.5905L295.541 37.4478C295.598 37.0386 295.686 36.6335 295.802 36.2357C295.417 36.4591 295.049 36.7098 294.701 36.9857L295.599 34.895L293.756 36.3073L293.779 36.2537C293.969 35.8468 294.188 35.4527 294.434 35.0742C293.996 35.2121 293.567 35.3766 293.149 35.5668L293.229 35.346C293.359 35.01 293.513 34.6828 293.688 34.3663C293.312 34.4316 292.94 34.5231 292.577 34.6402C292.482 34.6564 292.391 34.6988 292.298 34.7325C292.424 34.5625 292.566 34.385 292.714 34.2112C293.072 33.7819 293.455 33.3724 293.86 32.9846C293.288 33.105 292.723 33.2579 292.169 33.4424C292.035 33.483 291.903 33.528 291.771 33.5773L291.767 33.551C291.92 33.2934 292.043 33.0199 292.133 32.7361C291.853 32.7657 291.571 32.7651 291.292 32.7341L291.13 32.7121L291.959 31.6248L291.095 31.6809L291.199 31.5776C291.548 31.2442 291.918 30.9317 292.306 30.6417C291.801 30.6402 291.296 30.6685 290.794 30.7265L290.73 30.7373L291.835 29.955L290.257 29.8436L292.438 28.6941L290.725 28.3935L291.547 27.8981L290.766 27.5571L293.179 27.3647L291.395 26.6163C291.747 26.5073 292.089 26.3709 292.419 26.2085C292.106 26.0655 291.805 25.8976 291.521 25.7067L293.21 25.3666L292.449 24.8732L293.66 24.8845L292.82 24.1972L294.578 24.2962L293.754 23.5341L295.353 23.7142L294.096 22.7413L295.611 23.0076L294.958 22.1805L296.404 22.2601L295.864 21.4137L297.374 22.0597L296.636 20.7871L297.655 20.9887L297.507 20.3059C297.6 20.3352 297.699 20.3636 297.798 20.4008C298.128 20.521 298.446 20.6677 298.75 20.8393C298.711 20.5166 298.647 20.1974 298.56 19.884L299.721 20.4809L299.394 19.3461L300.639 19.8882L300.727 19.0302L301.597 19.8116L301.696 18.7984L302.262 19.6043L302.322 18.3631L302.985 19.3555L303.491 18.4267L304.004 19.5798L304.518 18.2618L304.987 19.2689L305.56 17.9095L305.875 18.6904L306.475 17.7454L306.915 18.6043L307.375 17.9268L307.759 18.7635L308.394 17.8804L308.875 20.0082L309.668 18.1831L309.933 19.527L310.763 18.1961L311.152 19.2844L312.007 18.3462L311.975 19.5644L313.196 18.5054L312.883 19.6901L313.983 19.1837C313.918 19.321 313.849 19.4635 313.785 19.6096C313.491 20.2655 313.245 20.94 313.048 21.628C313.52 21.1041 314.028 20.6114 314.568 20.1533C314.792 19.962 315.023 19.7831 315.239 19.6248L315.14 20.0338L315.839 19.8071L315.185 21.0407L316.715 20.1548L315.321 21.7887L317.484 20.9714L316.33 22.1499L318.1 21.8274L317.17 22.8145L318.615 22.7457C318.624 22.7939 318.631 22.8377 318.638 22.8815L316.064 24.2193L318.716 24.1399L317.256 24.838L319.126 25.157L318.902 25.2627C318.326 25.5315 317.715 25.7567 317.715 25.7567C317.715 25.7567 318.267 25.9833 318.875 26.1781L318.006 26.5597L318.706 27.0317L316.699 27.2814L318.579 27.9866L317.727 28.194L318.555 28.8697L317.754 29.0416L318.282 29.5699L316.664 29.6365L318.402 30.6947L317.2 30.7045L317.936 31.441L316.821 31.445L317.572 32.2421L315.953 31.7228L316.583 32.6891L315.563 32.4831L316.569 33.7872L315.459 33.5783L316.079 34.6727L315.037 34.3623L315.696 35.4995L314.193 34.893L314.748 35.7728L313.526 35.1457L314.37 36.6033L313.588 36.2849L313.765 36.805L312.51 35.8994L313.019 37.2244L311.94 36.5324L312.341 37.8488L311.704 37.4517L311.73 38.6285L310.44 37.1833L310.78 39.1908C310.64 39.0251 310.483 38.8443 310.319 38.6737C309.955 38.2891 309.571 37.9237 309.167 37.5792C309.278 38.0756 309.363 38.5774 309.422 39.0826C309.444 39.2141 309.465 39.3369 309.463 39.4634L308.041 37.8196L308.215 39.7604L307.54 38.9144L307.372 39.9077L306.31 37.4951L306.02 40.1682L305.23 38.2596L304.65 40.8151L303.772 38.3892L303.319 40.5941C303.284 40.5244 303.253 40.4529 303.227 40.3798C303.075 40.0123 302.954 39.6331 302.867 39.2459C302.649 39.5761 302.456 39.9207 302.29 40.277L301.782 37.9688L300.908 40.4434C300.856 40.2789 300.815 40.1111 300.786 39.9411C300.699 39.4841 300.661 39.0192 300.672 38.5536C300.345 38.9379 300.062 39.3547 299.827 39.7968L299.746 39.9503C299.72 39.7969 299.693 39.6391 299.702 39.4708C299.675 38.9669 299.688 38.4613 299.74 37.9584C299.381 38.3589 299.055 38.7865 298.766 39.237C298.671 39.447 298.581 39.6021 298.494 39.7521L298.506 39.7681ZM276.643 38.8312C277.742 36.8548 278.947 34.935 280.254 33.0797C280.128 33.3038 280.017 33.5257 279.899 33.7395L279.266 35.0775C279.072 35.4756 278.928 35.8381 278.791 36.1589L278.461 36.9678C278.289 37.4117 278.193 37.6444 278.193 37.6444L278.64 37.0592C278.926 36.6772 279.333 36.1077 279.873 35.4076L280.769 34.2459L281.843 32.9006C282.228 32.4161 282.65 31.9299 283.099 31.412L283.786 30.6148L284.449 29.8984L284.306 30.13C282.709 32.7451 281.393 35.4793 281.393 35.4793C281.393 35.4793 283.13 32.9713 285.101 30.6626C286.123 29.4436 287.2 28.2826 288.001 27.4663C288.017 30.6208 289.003 33.6886 290.833 36.2792C290.582 35.9835 290.337 35.6959 290.129 35.402C289.827 34.9436 289.513 34.5234 289.254 34.0983C288.996 33.6732 288.802 33.2732 288.582 32.8821C288.361 32.4911 288.248 32.127 288.1 31.8005C288.025 31.6328 287.956 31.4776 287.894 31.3303C287.832 31.1831 287.793 31.0364 287.747 30.9043C287.66 30.6395 287.585 30.4133 287.521 30.2302C287.393 29.8597 287.327 29.6634 287.327 29.6634C287.327 29.6634 287.361 29.8651 287.39 30.2569C287.423 30.4498 287.442 30.6991 287.474 30.9731C287.498 31.1134 287.524 31.2668 287.548 31.4114C287.573 31.5561 287.605 31.7445 287.671 31.9181C287.76 32.2729 287.851 32.6767 287.966 33.1081C288.081 33.5395 288.283 33.9563 288.467 34.4661C288.652 34.9759 288.93 35.4338 289.187 35.9627C289.322 36.2313 289.477 36.49 289.65 36.7366C289.816 37.0015 289.992 37.2649 290.166 37.5509C290.341 37.837 290.576 38.0677 290.768 38.3507C290.976 38.6247 291.198 38.8881 291.434 39.1397C291.933 39.675 292.466 40.1796 293.03 40.6504C294.255 41.6773 295.623 42.532 297.097 43.1899L298.28 43.6704L298.321 43.6635L298.111 43.663C296.264 43.6737 294.419 43.5611 292.591 43.3263C291.716 43.231 290.885 43.0337 290.057 42.9168C289.23 42.8 288.466 42.5641 287.717 42.4115C286.967 42.2589 286.247 42.0065 285.594 41.788L284.606 41.464L284.113 41.3129L283.668 41.1359C283.083 40.9102 282.534 40.6967 282.034 40.4748L281.311 40.1464L280.665 39.8363C279.801 39.4264 278.964 38.9659 278.158 38.4574C278.158 38.4574 278.334 38.644 278.711 38.9679C279.244 39.4315 279.802 39.8667 280.384 40.2717L280.982 40.6889L281.657 41.1157C282.12 41.425 282.653 41.7045 283.211 42.0204L283.642 42.2538L284.101 42.4783L285.057 42.9431L285.385 43.0904C282.27 42.0873 279.326 40.6528 276.643 38.8312Z" fill="white" fill-opacity="0.2"/>
<path d="M282.327 39.1762C282.968 39.4328 283.728 39.7009 284.55 39.9766C285.371 40.2522 286.234 40.5524 287.114 40.8137C287.994 41.075 288.87 41.3641 289.701 41.5885C290.533 41.8128 291.314 42.0412 291.99 42.2018C292.666 42.3623 293.221 42.5253 293.619 42.6157L294.24 42.781L293.597 42.7592C293.187 42.7341 292.6 42.6891 291.898 42.5961C291.196 42.5031 290.393 42.3641 289.53 42.2036C288.667 42.0431 287.762 41.7725 286.864 41.5143C285.966 41.2561 285.105 40.9106 284.29 40.5661C283.475 40.2216 282.77 39.8587 282.137 39.542C281.505 39.2253 281.027 38.9139 280.678 38.7024L280.15 38.341L280.752 38.5592C281.126 38.7259 281.673 38.9489 282.327 39.1762Z" fill="white" fill-opacity="0.2"/>
<path d="M323.399 36.6839C324.211 36.321 325.131 35.8855 326.156 35.4009C327.18 34.9163 328.238 34.4395 329.304 33.9209C330.369 33.4023 331.47 32.9274 332.452 32.4409C333.434 31.9545 334.399 31.534 335.196 31.142C335.993 30.7499 336.678 30.44 337.151 30.2248L337.897 29.8909L337.224 30.3522C336.805 30.635 336.163 31.0368 335.407 31.5075C334.651 31.9782 333.732 32.4765 332.76 33.02C331.787 33.5634 330.707 34.0755 329.633 34.6C328.56 35.1245 327.462 35.5629 326.424 35.9957C325.387 36.4284 324.406 36.7883 323.563 37.0754C322.72 37.3624 322.002 37.5878 321.505 37.7396L320.713 37.9685L321.449 37.6047C321.922 37.3894 322.615 37.0692 323.399 36.6839Z" fill="white" fill-opacity="0.2"/>
<path d="M289.767 40.7928L288.356 40.4546L286.775 39.9694L285.232 39.3741L283.926 38.7747L283.026 38.2868L282.693 38.0818L283.083 38.151L284.083 38.3784L285.474 38.765L287.044 39.2657L288.583 39.839L289.91 40.3944L290.829 40.8338L291.178 41.0183L290.783 40.9725L289.767 40.7928Z" fill="white" fill-opacity="0.2"/>
<path d="M10.5258 177.826C-3.51466 177.826 -14.9482 189.3 -14.9482 203.39C-14.9482 217.48 -3.51466 228.954 10.5258 228.954C24.5662 228.954 35.9998 217.48 35.9998 203.39C36.0455 189.3 24.6119 177.826 10.5258 177.826ZM34.8564 205.363C34.582 208.76 33.5759 211.927 32.1124 214.634C30.6946 217.342 28.7738 219.637 26.8072 221.427C24.7949 223.217 22.6911 224.502 20.6788 225.374C18.7122 226.246 16.8828 226.751 15.3736 227.026C13.8644 227.302 12.6296 227.347 11.8063 227.393C10.9831 227.393 10.5258 227.393 10.5258 227.393C10.5258 227.393 10.9831 227.347 11.8063 227.347C12.6296 227.256 13.8186 227.164 15.3279 226.797C16.8371 226.475 18.6208 225.879 20.4959 224.961C22.4167 224.043 24.429 222.712 26.3498 220.922C28.225 219.132 30.0086 216.883 31.3349 214.221C32.6612 211.559 33.5301 208.484 33.8045 205.272C34.0332 202.013 33.6216 198.663 32.4783 195.496C31.655 193.155 30.3745 190.952 28.8652 188.979C29.3226 190.539 29.8257 192.696 30.0086 195.175C29.9629 195.129 29.9171 195.083 29.8714 195.037C29.597 194.807 29.2768 194.716 29.0939 194.716C29.0024 194.716 28.911 194.762 28.8652 194.762C28.8195 194.762 28.7738 194.807 28.7738 194.807C28.7738 194.807 28.8195 194.807 28.8652 194.807C28.911 194.807 29.0024 194.853 29.0482 194.899C29.1854 194.991 29.3683 195.129 29.5513 195.358C29.6885 195.588 29.8257 195.909 29.8714 196.23C29.8714 196.276 29.8714 196.322 29.8714 196.368V196.506C29.8714 196.597 29.8714 196.689 29.8714 196.735C29.8714 196.919 29.8257 197.056 29.7799 197.24C29.7342 197.378 29.6427 197.515 29.5513 197.607C29.4598 197.699 29.4141 197.745 29.2311 197.791C29.1854 197.791 29.0024 197.791 28.911 197.745C28.7738 197.699 28.6823 197.607 28.5451 197.515C28.3164 197.332 28.1792 197.102 28.0878 196.965C27.9963 196.827 27.9506 196.689 27.9506 196.689C27.9506 196.689 27.9506 196.735 27.9506 196.781C27.9506 196.827 27.9506 196.919 27.9506 197.01C27.9506 197.194 27.9963 197.515 28.1792 197.791C28.2707 197.928 28.4079 198.112 28.5908 198.25C28.7738 198.387 29.0024 198.525 29.3226 198.525C29.5513 198.525 29.9171 198.433 30.1001 198.25L30.1458 198.204C30.1001 199.626 29.9171 201.141 29.597 202.701C29.9171 202.701 30.1458 202.564 30.3287 202.426C30.5117 202.288 30.6489 202.151 30.7403 202.013C30.8318 201.875 30.9233 201.784 30.969 201.738C31.0148 201.692 31.0605 201.646 31.0605 201.646C31.0605 201.646 31.0605 201.738 31.0605 201.829C31.0605 201.967 31.0148 202.151 30.9233 202.334C30.8318 202.518 30.6489 202.747 30.4202 202.931C30.1915 203.115 29.9171 203.206 29.597 203.206C29.2768 203.206 29.0024 203.115 28.7738 202.931C28.5451 202.747 28.4079 202.518 28.3164 202.334C28.225 202.151 28.1792 201.921 28.1792 201.829C28.1792 201.692 28.1792 201.646 28.1792 201.646C28.1792 201.646 27.9963 201.738 27.9506 202.151C27.9506 202.38 27.9506 202.656 28.1792 203.023C28.3622 203.344 28.7738 203.711 29.3683 203.803C29.2768 204.078 29.2311 204.354 29.1396 204.629C28.7738 204.629 28.4536 204.767 28.225 205.042C27.8134 205.547 27.9048 206.327 28.4079 206.74C28.042 207.658 27.5847 208.622 27.0816 209.54C27.5389 209.586 27.9048 209.448 28.1792 209.31C28.5451 209.127 28.7738 208.897 28.9567 208.714C29.1396 208.53 29.2311 208.393 29.3226 208.347C29.4141 208.255 29.4598 208.255 29.4598 208.255C29.4598 208.255 29.4141 208.347 29.3683 208.576C29.2768 208.76 29.1396 209.035 28.911 209.31C28.6823 209.586 28.3622 209.815 27.9506 209.999C27.7676 210.091 27.5389 210.137 27.3103 210.137C27.0816 210.137 26.8529 210.137 26.6243 210.045C26.3956 209.999 26.1669 209.861 25.984 209.769C25.801 209.632 25.6181 209.494 25.4809 209.31C25.2065 208.943 25.0693 208.576 25.0236 208.209C24.9778 207.842 24.9778 207.566 25.0236 207.383C25.0693 207.199 25.0693 207.062 25.0693 207.062C25.0693 207.062 25.0236 207.062 24.9778 207.153C24.8864 207.245 24.7949 207.383 24.7034 207.704C24.6577 207.979 24.5662 208.438 24.7949 208.989C24.8864 209.265 25.0693 209.586 25.3437 209.861C25.6181 210.137 25.984 210.412 26.4871 210.55C26.3041 210.871 26.0754 211.192 25.8925 211.513C25.7553 211.513 25.6181 211.513 25.4809 211.513C24.7034 211.651 24.2003 212.294 24.2918 212.936C24.2918 212.982 24.3375 213.074 24.3375 213.12C23.7887 212.982 23.2857 212.477 23.1484 211.697C22.9198 210.32 21.7307 207.475 20.6331 206.878C19.444 206.235 18.4836 207.796 19.1238 208.301C20.5873 209.402 19.8556 211.513 19.9928 213.349C20.0385 214.084 20.4044 214.68 20.7245 215.231C19.9928 215.46 19.5354 216.149 19.6726 216.791C19.7184 217.159 19.947 217.434 20.2672 217.618C19.8098 217.985 19.3982 218.306 18.9409 218.627C18.9409 218.581 18.9409 218.535 18.9409 218.49C18.8952 217.893 18.7122 217.388 18.4835 217.021C18.2549 216.654 17.9805 216.378 17.7518 216.241C17.2487 215.874 16.8828 215.828 16.6999 215.828C16.4712 215.828 16.4255 215.828 16.4255 215.828C16.4255 215.828 16.4712 215.828 16.5627 215.874C16.6542 215.919 16.7914 215.965 16.9743 216.057C17.2945 216.241 17.7975 216.654 18.1177 217.25C18.4378 217.847 18.5293 218.719 18.2091 219.545C17.9347 220.371 17.2487 221.106 16.4255 221.519C15.6023 221.932 14.5961 221.978 13.8186 221.656C12.9954 221.335 12.4009 220.693 12.1722 220.05C11.8978 219.408 11.9435 218.811 12.035 218.398C12.0807 218.214 12.1265 218.031 12.1722 217.939C12.2179 217.847 12.2179 217.801 12.2179 217.801C12.2179 217.801 12.1722 217.847 12.035 218.031C11.9435 218.214 11.7149 218.535 11.6691 219.132C11.6234 219.408 11.6234 219.775 11.7606 220.234C11.8521 220.647 12.1265 221.106 12.5381 221.565C12.6296 221.656 12.721 221.748 12.8582 221.84C12.3552 222.024 11.8521 222.161 11.349 222.299C11.2118 221.932 11.0289 221.702 10.8459 221.519C10.6172 221.289 10.3886 221.152 10.2056 221.06C9.79403 220.876 9.56536 220.876 9.38242 220.876C9.24522 220.876 9.15375 220.922 9.15375 220.922C9.15375 220.922 9.19948 220.922 9.24522 220.968C9.33669 221.014 9.42815 221.06 9.56536 221.106C9.83976 221.243 10.1599 221.473 10.48 221.84C10.6172 222.024 10.7544 222.253 10.8459 222.528C10.9374 222.804 10.8917 223.125 10.8002 223.4C10.5715 223.997 9.93123 224.364 9.29095 224.502C8.01039 224.777 6.59263 224.181 6.04381 223.355C5.76941 222.941 5.67794 222.528 5.72367 222.207C5.72367 222.069 5.76941 221.932 5.81514 221.886C5.86088 221.794 5.86088 221.794 5.86088 221.794C5.86088 221.794 5.81514 221.794 5.67794 221.932C5.58647 222.069 5.40353 222.299 5.40353 222.758C5.40353 222.85 5.40353 222.987 5.44927 223.125C5.12913 223.125 4.80899 223.125 4.53458 223.125C4.58032 222.987 4.58032 222.804 4.53458 222.666C4.39738 221.932 3.57416 221.427 2.70521 221.61C2.65947 221.61 2.568 221.656 2.52227 221.656C2.52227 221.335 2.61374 221.014 2.79667 220.784C3.61989 219.591 5.99808 218.719 6.08955 216.654C6.13528 215.139 -0.313258 215.644 -0.313258 218.077C-0.267524 220.463 -1.36515 220.28 -2.18836 221.61C-2.32557 221.84 -2.46277 222.024 -2.59997 222.161C-3.19452 221.978 -3.74333 221.84 -4.20068 221.656C-4.15494 221.61 -4.15494 221.565 -4.10921 221.519C-3.92627 221.197 -4.06347 220.738 -4.47508 220.509C-4.84096 220.28 -5.34403 220.371 -5.52697 220.693C-5.57271 220.784 -5.57271 220.83 -5.61844 220.922C-10.2376 216.562 -13.1189 210.366 -13.1189 203.482C-13.1189 203.482 -13.1189 203.023 -13.1189 202.197C-13.0731 201.371 -13.0274 200.131 -12.753 198.617C-12.4786 197.102 -11.9755 195.266 -11.1066 193.293C-10.2376 191.319 -8.95705 189.162 -7.17341 187.189C-5.38977 185.169 -3.14879 183.288 -0.404727 181.865C2.2936 180.396 5.44927 179.387 8.83361 179.111C12.1722 178.836 15.7395 179.203 19.0781 180.442C22.4167 181.635 25.5266 183.609 28.0878 186.179C30.6031 188.749 32.6155 191.87 33.8045 195.22C34.765 198.433 35.1308 202.013 34.8564 205.363Z" fill="white" fill-opacity="0.2"/>
<path d="M16.9744 210.045C16.7458 209.678 16.4714 209.356 16.1969 209.127C15.9225 208.897 15.6024 208.76 15.328 208.668C15.0536 208.576 14.8249 208.53 14.5962 208.484C14.3676 208.484 14.2304 208.484 14.1389 208.484C14.0474 208.484 13.956 208.484 13.956 208.484C13.956 208.484 14.0017 208.484 14.1389 208.53C14.2304 208.53 14.4133 208.576 14.5962 208.622C14.7792 208.668 15.0079 208.76 15.2365 208.897C15.4652 209.035 15.6939 209.219 15.9225 209.448C16.1512 209.678 16.3341 209.953 16.4714 210.274C16.6086 210.596 16.7 210.963 16.7 211.33C16.7 211.422 16.7 211.513 16.7 211.605C16.7 211.697 16.7 211.835 16.6543 211.927C16.6086 212.11 16.5628 212.294 16.5171 212.477C16.3799 212.844 16.1512 213.166 15.8768 213.441C15.6024 213.716 15.2823 213.946 14.9164 214.084C14.5505 214.221 14.1846 214.267 13.773 214.267C13.4072 214.267 13.0413 214.175 12.7211 214.038C12.401 213.9 12.1266 213.716 11.8979 213.487C11.6692 213.258 11.4863 213.028 11.3491 212.799C11.2119 212.569 11.1204 212.34 11.0747 212.156C11.029 211.972 10.9832 211.835 10.9832 211.697C10.9832 211.605 10.9375 211.513 10.9375 211.513C10.9375 211.513 10.9375 211.559 10.9375 211.697C10.9375 211.789 10.9375 211.972 10.9375 212.156C10.9832 212.34 10.9832 212.615 11.1204 212.89C11.2119 213.166 11.3491 213.441 11.5778 213.762C12.0351 214.359 12.7669 214.864 13.773 214.956C14.2304 215.002 14.7334 214.956 15.1908 214.772C15.6481 214.588 16.1055 214.313 16.4714 213.992C16.8372 213.625 17.1116 213.166 17.2488 212.707C17.3403 212.477 17.386 212.248 17.4318 211.972C17.4318 211.835 17.4318 211.743 17.4318 211.651C17.4318 211.513 17.4318 211.422 17.4318 211.284C17.3403 210.825 17.1574 210.412 16.9744 210.045Z" fill="white" fill-opacity="0.2"/>
<path d="M3.48282 208.53C3.39135 207.842 2.97974 207.337 2.56813 207.016C2.33946 206.878 2.15652 206.786 1.97359 206.694C1.79065 206.649 1.60771 206.603 1.47051 206.603C1.33331 206.603 1.1961 206.603 1.15037 206.603C1.0589 206.603 1.0589 206.603 1.0589 206.603C1.0589 206.603 1.10463 206.603 1.15037 206.649C1.24184 206.649 1.33331 206.694 1.42477 206.74C1.65345 206.832 1.97359 207.016 2.24799 207.337C2.3852 207.475 2.5224 207.658 2.61387 207.888C2.70534 208.117 2.75107 208.347 2.75107 208.576C2.75107 208.622 2.75107 208.714 2.75107 208.76C2.75107 208.806 2.75107 208.897 2.75107 208.989C2.75107 209.081 2.70534 209.219 2.6596 209.311C2.56813 209.54 2.43093 209.769 2.29373 209.907C2.11079 210.091 1.92785 210.228 1.69918 210.32C1.47051 210.412 1.24184 210.458 0.967431 210.458C0.738759 210.458 0.510088 210.412 0.281416 210.32C0.0527442 210.228 -0.130192 210.137 -0.267395 209.999C-0.404598 209.861 -0.541802 209.724 -0.633271 209.586C-0.72474 209.448 -0.816208 209.311 -0.861943 209.173C-0.907677 209.035 -0.95341 208.943 -0.95341 208.897C-0.95341 208.806 -0.999146 208.806 -0.999146 208.806C-0.999146 208.806 -0.999146 208.852 -0.999146 208.897C-0.999146 208.989 -0.999146 209.081 -0.999146 209.219C-0.999146 209.356 -0.953411 209.54 -0.907676 209.724C-0.861942 209.907 -0.724739 210.137 -0.587536 210.32C-0.450333 210.504 -0.221661 210.733 0.00701046 210.871C0.281417 211.009 0.555823 211.146 0.921697 211.192C1.24184 211.238 1.60771 211.192 1.92785 211.1C2.24799 211.009 2.56813 210.779 2.84254 210.504C3.11695 210.228 3.29988 209.907 3.39135 209.586C3.43709 209.402 3.48282 209.219 3.48282 209.035C3.48282 208.943 3.48282 208.897 3.48282 208.806C3.52855 208.668 3.48282 208.622 3.48282 208.53Z" fill="white" fill-opacity="0.2"/>
<path d="M6.63847 202.931C6.86714 202.977 7.14155 202.977 7.37022 202.885C7.59889 202.793 7.8733 202.656 8.05623 202.472C8.23917 202.288 8.37638 202.059 8.46784 201.784C8.51358 201.646 8.51358 201.554 8.51358 201.371C8.51358 201.279 8.51358 201.279 8.51358 201.233C8.51358 201.141 8.51358 201.095 8.51358 201.049C8.42211 200.544 8.1477 200.177 7.82756 199.994C7.50742 199.81 7.23302 199.764 7.05008 199.764C6.86714 199.764 6.77567 199.81 6.77567 199.81C6.77567 199.81 6.82141 199.81 6.86714 199.856C6.91288 199.856 7.00435 199.902 7.05008 199.948C7.18728 200.04 7.41595 200.177 7.55316 200.361C7.73609 200.59 7.82756 200.866 7.82756 201.141C7.82756 201.187 7.82756 201.233 7.82756 201.233C7.82756 201.279 7.82756 201.325 7.82756 201.371C7.82756 201.416 7.78183 201.508 7.78183 201.554C7.73609 201.692 7.64463 201.83 7.55316 201.921C7.46169 202.013 7.32449 202.105 7.18728 202.151C7.05008 202.197 6.91288 202.243 6.77567 202.243C6.63847 202.243 6.50127 202.243 6.36407 202.197C6.22686 202.151 6.08966 202.105 5.99819 202.013C5.76952 201.875 5.63232 201.646 5.54085 201.508C5.49511 201.416 5.44938 201.371 5.44938 201.325C5.44938 201.279 5.40364 201.233 5.40364 201.233C5.40364 201.233 5.40364 201.279 5.40364 201.325C5.40364 201.371 5.35791 201.462 5.35791 201.554C5.35791 201.738 5.40364 202.059 5.63232 202.334C5.72378 202.472 5.86099 202.61 6.04393 202.747C6.13539 202.839 6.36406 202.931 6.63847 202.931Z" fill="white" fill-opacity="0.2"/>
<path d="M14.4591 185.261C14.9164 185.261 15.4195 185.261 15.8768 185.169C16.3342 185.078 16.7915 184.94 17.2489 184.71C17.6147 184.527 18.0264 184.16 18.255 183.747C18.3465 183.517 18.438 183.288 18.438 183.058C18.438 182.829 18.3922 182.645 18.3008 182.462C18.1636 182.094 17.9349 181.819 17.7062 181.635C17.4775 181.452 17.2946 181.314 17.1117 181.222C16.9287 181.131 16.7915 181.085 16.7001 181.039C16.6086 180.993 16.5629 180.993 16.5629 180.993C16.5629 180.993 16.6086 181.039 16.7001 181.085C16.7915 181.131 16.9287 181.268 17.0659 181.36C17.2031 181.498 17.3861 181.681 17.5233 181.865C17.6605 182.094 17.8434 182.324 17.8892 182.599C17.9349 182.875 17.9349 183.196 17.752 183.425C17.569 183.701 17.2946 183.884 16.9287 184.068C16.6086 184.206 16.197 184.297 15.7854 184.389C15.3738 184.435 14.9622 184.481 14.5048 184.435C14.0932 184.435 13.6359 184.343 13.2243 184.251C12.8126 184.16 12.401 184.022 12.0352 183.884C11.9437 183.838 11.8522 183.792 11.7608 183.747C11.6693 183.701 11.5778 183.655 11.4863 183.609C11.3034 183.517 11.1662 183.425 11.029 183.334C10.7546 183.104 10.5259 182.875 10.343 182.599C10.2058 182.324 10.1143 182.048 10.1601 181.819C10.2058 181.589 10.2973 181.36 10.3887 181.222C10.4802 181.085 10.6174 180.947 10.6631 180.855C10.7546 180.763 10.8003 180.763 10.8003 180.763C10.8003 180.763 10.7546 180.809 10.6631 180.855C10.5717 180.901 10.4345 180.993 10.2973 181.131C10.16 181.268 9.97711 181.498 9.88564 181.773C9.79417 182.048 9.79417 182.462 9.97711 182.829C10.1143 183.196 10.3887 183.517 10.6631 183.792C10.8003 183.93 10.9833 184.068 11.1662 184.206C11.2577 184.251 11.3491 184.297 11.4406 184.389C11.5321 184.435 11.6235 184.481 11.7608 184.573C12.1724 184.756 12.584 184.94 13.0413 185.078C13.5444 185.169 14.0017 185.261 14.4591 185.261Z" fill="white" fill-opacity="0.2"/>
<path d="M22.1424 197.24C22.1424 197.102 22.1882 196.964 22.1882 196.827C22.1882 196.689 22.1882 196.597 22.1882 196.46C22.1882 196.322 22.1424 196.23 22.1424 196.092C21.9595 195.129 21.4107 194.394 20.8161 193.981C20.5417 193.752 20.2216 193.614 19.9472 193.522C19.6728 193.431 19.4441 193.385 19.2154 193.339C18.9868 193.339 18.8496 193.339 18.7581 193.339C18.6666 193.339 18.5752 193.339 18.5752 193.339C18.5752 193.339 18.6209 193.339 18.7581 193.385C18.8496 193.385 19.0325 193.476 19.2154 193.522C19.3984 193.614 19.627 193.706 19.8557 193.844C20.0844 193.981 20.3131 194.165 20.5417 194.394C20.9991 194.853 21.3649 195.496 21.4564 196.276C21.4564 196.368 21.4564 196.46 21.4564 196.551C21.4564 196.643 21.4564 196.735 21.4564 196.873C21.4107 197.056 21.4107 197.24 21.3649 197.423C21.2735 197.791 21.0448 198.112 20.7704 198.387C20.496 198.663 20.1759 198.846 19.81 198.984C19.627 199.03 19.4441 199.076 19.2612 199.076H18.9868C18.8953 199.076 18.7581 199.076 18.6666 199.076C18.3007 199.03 17.9349 198.938 17.6147 198.754C17.2946 198.617 17.0202 198.387 16.7915 198.158C16.5628 197.928 16.3799 197.699 16.2427 197.469C16.1055 197.24 16.014 197.01 15.9226 196.873C15.8768 196.689 15.7854 196.551 15.7854 196.414C15.7396 196.322 15.7396 196.276 15.7396 196.276C15.7396 196.276 15.7396 196.322 15.7396 196.46C15.7396 196.551 15.7396 196.735 15.7396 196.919C15.7854 197.102 15.8311 197.378 15.9226 197.653C16.014 197.928 16.197 198.204 16.4256 198.479C16.6543 198.754 16.9287 199.03 17.2946 199.259C17.6605 199.489 18.0721 199.672 18.5752 199.764C18.6666 199.764 18.8038 199.81 18.8953 199.81C19.0325 199.81 19.124 199.81 19.2612 199.81C19.3984 199.81 19.4898 199.81 19.627 199.764C19.7642 199.718 19.8557 199.718 19.9929 199.672C20.496 199.535 20.9533 199.259 21.3192 198.892C21.6851 198.525 21.9595 198.066 22.0967 197.561C22.0967 197.515 22.0967 197.378 22.1424 197.24Z" fill="white" fill-opacity="0.2"/>
<path d="M19.0782 184.71C19.1239 184.665 19.1239 184.665 19.1239 184.665C19.1239 184.665 19.1239 184.665 19.0782 184.71C18.9867 184.71 18.8953 184.71 18.8038 184.802C18.7123 184.894 18.6209 184.986 18.5294 185.169C18.4837 185.353 18.4379 185.537 18.4837 185.766C18.5294 185.996 18.6209 186.179 18.7581 186.409C18.8038 186.5 18.8953 186.592 18.9867 186.684C19.0782 186.776 19.1239 186.822 19.2611 186.959C19.627 187.281 20.0844 187.556 20.6332 187.694C20.9076 187.74 21.182 187.785 21.4564 187.785C21.5936 187.785 21.7308 187.785 21.868 187.74C21.9595 187.74 22.0052 187.694 22.0967 187.694C22.1881 187.648 22.2339 187.648 22.2796 187.602C22.554 187.464 22.7827 187.235 22.8742 186.959C22.9656 186.684 22.9199 186.409 22.8284 186.225C22.6455 185.812 22.4168 185.628 22.2339 185.491C22.1424 185.445 22.0509 185.399 22.0052 185.353C21.9595 185.307 21.9137 185.307 21.9137 185.307C21.9137 185.307 21.9137 185.353 21.9595 185.399C22.0052 185.445 22.0509 185.537 22.0967 185.628C22.1881 185.812 22.3253 186.087 22.3711 186.363C22.3711 186.5 22.3711 186.638 22.2796 186.776C22.2339 186.868 22.0967 186.959 21.9595 187.005C21.9137 187.051 21.868 187.051 21.8223 187.051C21.7765 187.051 21.7308 187.051 21.6851 187.051C21.5936 187.051 21.5021 187.051 21.4107 187.051C21.2277 187.051 20.9991 187.005 20.8161 186.959C20.6332 186.913 20.4045 186.822 20.2216 186.73C20.0386 186.638 19.8557 186.546 19.6728 186.409C19.627 186.363 19.4898 186.271 19.4441 186.225C19.3984 186.179 19.3069 186.087 19.2611 186.041C19.1239 185.904 19.0325 185.766 18.9867 185.628C18.8495 185.353 18.8495 185.124 18.941 184.94C18.9867 184.848 19.0782 184.756 19.0782 184.71Z" fill="white" fill-opacity="0.2"/>
<path d="M9.15391 193.522C9.51978 192.513 10.5259 191.962 12.8584 191.641C15.1908 191.319 17.7977 192.788 20.7247 192.283C23.8804 191.732 20.2674 190.906 16.5171 189.759C12.8127 188.612 12.584 189.897 9.70272 189.529C6.86719 189.162 5.4037 189.805 4.99209 191.503C4.80915 192.329 1.56201 191.044 1.56201 192.604C1.56201 193.431 1.97362 194.349 4.03166 195.266C5.99824 196.184 8.78804 194.532 9.15391 193.522Z" fill="white" fill-opacity="0.2"/>
<path d="M9.42831 214.038C8.55935 214.175 7.91907 214.91 8.05627 215.69C8.19348 216.424 9.0167 216.929 9.88565 216.746C10.7546 216.608 11.3949 215.874 11.2577 215.093C11.1205 214.359 10.2973 213.9 9.42831 214.038Z" fill="white" fill-opacity="0.2"/>
<path d="M6.68425 213.854C6.22691 213.946 5.9525 214.313 5.99824 214.68C6.04397 215.047 6.45558 215.277 6.91292 215.231C7.37027 215.139 7.64467 214.772 7.59894 214.405C7.50747 214.038 7.09586 213.808 6.68425 213.854Z" fill="white" fill-opacity="0.2"/>
<path d="M8.69658 212.661C8.3307 212.707 8.10203 213.028 8.14777 213.349C8.1935 213.671 8.55938 213.854 8.87952 213.762C9.24539 213.716 9.47406 213.395 9.42833 213.074C9.38259 212.753 9.06245 212.569 8.69658 212.661Z" fill="white" fill-opacity="0.2"/>
<path d="M13.1327 192.972C12.2637 192.283 11.0289 192.329 10.3886 193.155C9.7026 193.981 9.83981 195.221 10.7088 195.909C11.5777 196.597 12.8125 196.551 13.4528 195.725C14.1388 194.899 14.0016 193.706 13.1327 192.972Z" fill="white" fill-opacity="0.2"/>
<path d="M14.6879 192.926C14.3677 193.293 14.4135 193.89 14.8251 194.211C15.2367 194.532 15.8312 194.486 16.1514 194.119C16.4715 193.752 16.4258 193.155 16.0142 192.834C15.6026 192.513 15.008 192.559 14.6879 192.926Z" fill="white" fill-opacity="0.2"/>
<path d="M22.1424 203.023C21.7308 203.39 21.6393 203.987 21.9137 204.354C22.2338 204.721 22.7826 204.721 23.24 204.354C23.6516 203.987 23.7431 203.39 23.4687 203.023C23.1485 202.656 22.554 202.656 22.1424 203.023Z" fill="white" fill-opacity="0.2"/>
<path d="M13.27 204.905C13.7273 205.042 14.139 204.813 14.2762 204.446C14.3676 204.078 14.139 203.665 13.6816 203.574C13.2243 203.436 12.8127 203.665 12.6755 204.032C12.5383 204.4 12.8127 204.767 13.27 204.905Z" fill="white" fill-opacity="0.2"/>
<path d="M4.94634 183.792C6.2269 183.471 7.09586 182.645 6.91292 182.003C6.72998 181.36 5.58662 181.085 4.30606 181.406C3.0255 181.727 2.15655 182.553 2.33949 183.196C2.52242 183.838 3.71152 184.114 4.94634 183.792Z" fill="white" fill-opacity="0.2"/>
<path d="M1.92802 184.481C1.33347 184.756 1.01333 185.261 1.15054 185.582C1.28774 185.904 1.88229 185.904 2.47683 185.628C3.07138 185.353 3.39152 184.848 3.25431 184.527C3.07138 184.206 2.47683 184.16 1.92802 184.481Z" fill="white" fill-opacity="0.2"/>
<path d="M25.5267 190.08C25.0236 190.539 25.298 191.687 26.2127 192.65C27.0817 193.614 28.225 194.027 28.7281 193.568C29.2312 193.109 28.9568 191.962 28.0421 190.998C27.1731 190.034 26.0298 189.621 25.5267 190.08Z" fill="white" fill-opacity="0.2"/>
<path d="M10.1142 188.841C11.4405 188.795 12.4924 188.107 12.4466 187.326C12.4009 186.546 11.349 185.95 10.0227 185.995C8.69644 186.041 7.64455 186.73 7.69028 187.51C7.73601 188.29 8.7879 188.887 10.1142 188.841Z" fill="white" fill-opacity="0.2"/>
<path d="M6.63856 189.254C7.18737 189.254 7.64472 188.933 7.64472 188.612C7.64472 188.29 7.18737 188.015 6.59283 188.061C6.04401 188.061 5.58667 188.382 5.58667 188.703C5.6324 189.025 6.08975 189.3 6.63856 189.254Z" fill="white" fill-opacity="0.2"/>
<path d="M26.3957 189.116C26.6244 188.887 26.4415 188.29 25.9841 187.831C25.5268 187.372 24.9322 187.189 24.7035 187.464C24.4749 187.694 24.6578 188.29 25.1152 188.749C25.5725 189.208 26.167 189.392 26.3957 189.116Z" fill="white" fill-opacity="0.2"/>
<path d="M-14.445 194.532C-14.2621 194.073 -14.1249 193.614 -13.8962 193.155C-13.5303 192.191 -13.0273 191.228 -12.4785 190.264C-11.9296 189.3 -11.2894 188.336 -10.6033 187.418C-9.91733 186.5 -9.13985 185.582 -8.2709 184.756C-7.44768 183.93 -6.53299 183.15 -5.61831 182.416C-4.70362 181.727 -3.7432 181.085 -2.78278 180.534C-1.82236 179.983 -0.861938 179.524 0.0984821 179.111C0.555826 178.882 1.0589 178.744 1.47051 178.56C1.92786 178.423 2.3852 178.239 2.79681 178.147C3.66576 177.918 4.44324 177.688 5.17499 177.551C5.54087 177.505 5.86101 177.413 6.18115 177.367C6.50129 177.321 6.77569 177.275 7.0501 177.229C7.55318 177.138 8.01052 177.138 8.28493 177.092C8.55933 177.046 8.74227 177.046 8.74227 177.046C8.74227 177.046 8.60507 177.046 8.28493 177.046C8.01052 177.046 7.59891 177 7.0501 177C6.77569 177 6.50129 177 6.18115 177C5.86101 177.046 5.49513 177.046 5.12926 177.092C4.39751 177.184 3.52856 177.275 2.65961 177.459C2.20226 177.551 1.74492 177.688 1.24184 177.78C0.784498 177.918 0.28142 178.056 -0.221658 178.239C-1.22781 178.56 -2.23397 179.019 -3.28586 179.57C-4.29201 180.121 -5.3439 180.717 -6.35006 181.452C-7.31048 182.14 -8.2709 182.966 -9.13985 183.838C-10.0088 184.71 -10.832 185.674 -11.5638 186.684C-12.2955 187.694 -12.8901 188.703 -13.4389 189.759C-13.942 190.815 -14.3993 191.824 -14.7652 192.834C-14.9481 193.339 -15.0853 193.844 -15.2225 194.303C-15.3597 194.807 -15.4512 195.266 -15.5427 195.725C-15.7256 196.643 -15.8628 197.469 -15.9085 198.204C-15.9543 198.525 -15.9543 198.892 -16 199.213C-16 199.535 -16 199.856 -16 200.085C-16 200.636 -15.9543 201.049 -15.9543 201.325C-15.9543 201.6 -15.9543 201.784 -15.9543 201.784C-15.9543 201.784 -15.9543 201.646 -15.9085 201.371C-15.8628 201.095 -15.8628 200.682 -15.7713 200.131C-15.7256 199.856 -15.6799 199.581 -15.6341 199.259C-15.5884 198.938 -15.4969 198.617 -15.4512 198.25C-15.314 197.515 -15.131 196.735 -14.8566 195.863C-14.7194 195.404 -14.5822 194.991 -14.445 194.532Z" fill="white" fill-opacity="0.2"/>
</svg>
