<svg width="1615" height="515" viewBox="0 0 1615 515" fill="none" xmlns="http://www.w3.org/2000/svg">
<path d="M1427.3 108.162L1434.56 109.061L1431.79 112.282L1435.98 112.118L1435.2 114.025L1437.06 113.711L1433.72 119.845L1438.27 117.362L1435.22 123.288L1441.18 119.35L1440.92 121.554L1443.82 120.071L1444.69 123.587L1446.44 121.836C1446.43 122.307 1446.44 122.769 1446.47 123.222C1446.59 125.08 1446.9 126.92 1447.4 128.714C1448.08 127.054 1448.92 125.459 1449.91 123.952C1450.23 123.467 1450.56 122.994 1450.9 122.553L1451.6 124.45L1453.79 122.48L1455.84 127.941L1458.68 121.219L1461.64 124.814L1462.07 122.869C1462.57 123.584 1463.12 124.291 1463.69 125.011C1465.47 127.192 1467.42 129.226 1469.54 131.093C1468.42 128.659 1467.5 126.139 1466.79 123.557C1466.72 123.122 1466.57 122.715 1466.48 122.282L1470.23 124.848L1469.06 119.54L1476.71 122.806L1472.27 116.868L1486.1 122.527L1476.53 113.858L1481.12 114.937L1477.43 111.418L1486.34 112.373L1478.05 107.664L1482.17 107.127L1478.66 105.304L1489.46 103.3L1481.96 101.37L1487.21 99.6964L1480.03 97.935L1483.65 95.979L1480 95.1728L1491.87 88.8576L1480.15 90.4904L1483.1 87.6856L1478.23 88.2551L1482.51 84.201L1475.64 85.5736L1478.42 80.0933L1474.06 82.4319C1474.06 82.3894 1474.05 82.3473 1474.04 82.3075C1474.96 80.3673 1475.68 78.3476 1476.2 76.2767C1474.73 77.7577 1473.12 79.1018 1471.4 80.291L1471.08 80.5038L1474.35 73.4697L1468.03 78.0441C1468.39 76.2876 1468.64 74.5136 1468.79 72.731C1467.51 74.6735 1466.07 76.5209 1464.51 78.2573L1463.99 78.8249L1465.14 71.525L1460.65 77.0867L1459.97 74.2571L1457.89 76.6575L1456.68 70.1091L1454.18 76.2776L1452.46 73.768L1451.46 76.8502L1449.34 74.1207L1448.72 76.4494C1448.31 76.0867 1447.88 75.6956 1447.44 75.3383C1446.09 74.2547 1444.63 73.3015 1443.08 72.492C1443.65 73.8651 1444.09 75.2832 1444.41 76.7313L1441.24 74.8048L1442.59 79.2646L1439.04 77.8968L1439.86 80.4786L1432.18 76.7222L1436.96 83.4674L1433.76 83.465L1435.38 85.926L1432.67 86.1455L1434.2 88.9421L1428.94 90.0263L1432.81 92.5702L1426.64 94.1447L1431.75 96.2397L1421.04 100.133L1432.78 100.993C1432.78 101.02 1432.78 101.047 1432.8 101.071L1427.88 103.967L1432.42 104.799L1427.3 108.162ZM1436.52 99.08C1436.54 98.5009 1436.53 97.8623 1436.57 97.1661C1436.66 96.4197 1436.78 95.6777 1436.94 94.9432C1437.34 93.13 1438.04 91.3891 1439.02 89.7907C1440.16 87.8804 1441.66 86.1925 1443.45 84.8163C1445.46 83.2418 1447.79 82.0897 1450.28 81.4346C1452.93 80.7206 1455.71 80.5783 1458.41 81.0176C1461.24 81.4492 1463.91 82.5012 1466.24 84.0932C1468.57 85.6852 1470.48 87.775 1471.83 90.2027C1472.53 91.3839 1473.07 92.6481 1473.43 93.9647C1473.66 94.6456 1473.64 95.2092 1473.86 95.8124C1474 96.4544 1474.11 97.1034 1474.19 97.7569C1474.36 100.23 1473.99 102.717 1473.12 105.059C1472.36 107.133 1471.2 109.055 1469.71 110.726C1468.46 112.144 1466.99 113.356 1465.34 114.313C1464.68 114.706 1463.99 115.063 1463.29 115.382C1462.62 115.654 1461.99 115.857 1461.43 116.064C1460.56 116.331 1459.67 116.525 1458.76 116.644L1457.81 116.805L1458.73 116.538C1459.59 116.278 1460.43 115.969 1461.26 115.614L1462.93 114.738C1463.56 114.358 1464.17 113.945 1464.76 113.5C1466.17 112.463 1467.41 111.222 1468.43 109.822C1469.62 108.224 1470.54 106.446 1471.13 104.563C1471.74 102.448 1471.93 100.243 1471.69 98.0681C1471.63 97.5135 1471.53 96.963 1471.41 96.4192C1471.29 95.8291 1471.13 95.247 1470.93 94.6758C1470.76 94.1654 1470.55 93.666 1470.31 93.1801C1470.08 92.645 1469.81 92.1244 1469.5 91.6212C1469.19 91.0916 1468.84 90.5788 1468.46 90.0849C1468.4 91.1119 1468.06 92.1088 1467.49 92.983C1466.92 93.8572 1466.13 94.5806 1465.2 95.0861C1465.55 95.431 1465.81 95.8525 1465.96 96.3159C1466.11 96.7792 1466.14 97.271 1466.05 97.7507C1465.96 98.2303 1465.75 98.6839 1465.45 99.0741C1465.15 99.4643 1464.75 99.7799 1464.3 99.9947C1463.84 100.209 1463.35 100.317 1462.84 100.309C1462.34 100.301 1461.85 100.178 1461.41 99.9488C1460.97 99.7199 1460.59 99.3921 1460.31 98.9926C1460.03 98.5931 1459.85 98.1333 1459.79 97.6513C1459.66 96.9135 1459.83 96.1546 1460.26 95.5237C1459.02 95.1548 1457.94 94.4265 1457.16 93.438C1456.38 92.4495 1455.94 91.2485 1455.89 89.9983C1455.84 88.7481 1456.19 87.5092 1456.89 86.45C1457.59 85.3907 1458.61 84.5624 1459.81 84.0776C1459.2 83.8928 1458.57 83.7419 1457.94 83.6255C1455.66 83.2234 1453.31 83.2686 1451.03 83.7585C1448.76 84.2485 1446.6 85.1732 1444.69 86.4782C1443.04 87.636 1441.6 89.0541 1440.43 90.6723C1439.4 92.0607 1438.59 93.5896 1438.03 95.2069C1437.79 95.8836 1437.59 96.5747 1437.44 97.2758C1437.3 97.939 1437.22 98.5446 1437.13 99.088C1437.05 99.9551 1437.02 100.826 1437.04 101.695L1437.08 102.617C1437.08 102.617 1437.03 102.306 1436.93 101.699C1436.71 100.841 1436.57 99.9659 1436.5 99.0827L1436.52 99.08Z" fill="white" fill-opacity="0.2"/>
<path d="M1315.04 148.266L1312.72 148.324L1315.03 148.557C1315.63 148.66 1316.24 148.728 1316.85 148.76C1319.8 148.944 1322.76 148.934 1325.71 148.732C1328.69 148.429 1331.66 147.954 1334.58 147.309C1337.89 146.568 1341.15 145.647 1344.35 144.55C1345.5 144.148 1346.6 143.721 1347.66 143.302C1347.95 143.542 1348.36 143.855 1348.9 144.261C1347.44 145.467 1345.77 146.838 1344.24 148.25C1341.83 150.564 1339.6 153.048 1337.57 155.684C1335.93 157.834 1334.98 159.324 1334.98 159.324C1334.98 159.324 1336.27 158.065 1338.36 156.383C1340.87 154.34 1343.54 152.49 1346.35 150.853C1347.26 150.314 1348.19 149.805 1349.12 149.327C1348.79 149.623 1348.45 149.922 1348.13 150.231C1345.43 152.932 1343.2 156.046 1341.54 159.444C1341.21 160.125 1340.93 160.747 1340.72 161.328C1340.5 161.909 1340.3 162.391 1340.17 162.813L1339.75 164.117L1340.44 162.927C1340.64 162.541 1340.95 162.105 1341.28 161.601C1341.65 161.04 1342.05 160.497 1342.48 159.974C1344.67 157.166 1347.33 154.729 1350.35 152.767C1351.93 151.751 1353.58 150.855 1355.3 150.089C1355.83 149.872 1356.34 149.657 1356.85 149.474L1357.2 149.687C1355.6 150.888 1354.1 152.213 1352.72 153.646C1350.54 155.924 1348.67 158.462 1347.16 161.198C1346.55 162.293 1346.11 163.247 1345.83 163.904L1345.39 164.953L1346.08 164.036C1346.53 163.48 1347.17 162.667 1348.04 161.785C1352 157.604 1356.99 154.453 1362.52 152.626L1362.8 152.772L1361.15 153.995C1359.35 155.462 1357.65 157.043 1356.07 158.728C1353.22 161.871 1350.87 165.403 1349.09 169.207C1348.73 169.973 1348.42 170.682 1348.18 171.331C1347.94 171.979 1347.7 172.516 1347.57 173.034L1347.11 174.489L1347.84 173.133C1348.06 172.71 1348.39 172.206 1348.76 171.632C1349.13 171.058 1349.53 170.429 1350.11 169.804C1352.48 166.557 1355.34 163.676 1358.6 161.26C1360.31 160.002 1362.1 158.859 1363.97 157.838C1365.52 157.032 1367.11 156.314 1368.74 155.686L1369.69 156.117C1369.18 156.684 1368.66 157.283 1368.18 157.973C1366.97 159.573 1365.95 161.303 1365.15 163.128C1364.79 163.934 1364.49 164.761 1364.24 165.602C1364.8 164.93 1365.4 164.294 1366.04 163.697C1367.38 162.439 1368.86 161.334 1370.45 160.405C1371.86 159.597 1373.36 158.936 1374.91 158.434L1375.16 158.536C1374.76 159.051 1374.39 159.578 1374.04 160.134C1373.02 161.653 1372.15 163.257 1371.43 164.927C1370.87 166.287 1370.6 167.214 1370.6 167.214C1370.6 167.214 1371.25 166.479 1372.33 165.497C1373.62 164.325 1375.01 163.269 1376.5 162.342C1377.48 161.736 1378.49 161.185 1379.53 160.692C1378.44 162.088 1377.45 163.555 1376.56 165.083C1374.95 167.922 1373.79 170.978 1373.13 174.146C1372.91 175.166 1372.75 176.197 1372.66 177.234L1372.56 178.404L1372.95 177.281C1373.28 176.322 1373.67 175.384 1374.13 174.473C1375.48 171.745 1377.25 169.228 1379.38 167.007C1381.17 165.138 1383.2 163.493 1385.42 162.11L1387.71 162.795C1387.53 163.033 1387.34 163.258 1387.18 163.508C1385.51 165.973 1384.34 168.719 1383.73 171.598C1383.62 172.14 1383.54 172.688 1383.5 173.238C1383.44 173.711 1383.39 174.104 1383.38 174.441L1383.35 175.488L1383.68 174.504C1383.8 174.123 1383.94 173.75 1384.12 173.389C1384.3 172.91 1384.52 172.444 1384.78 171.997C1386.03 169.618 1387.74 167.487 1389.81 165.72C1390.52 165.125 1391.27 164.576 1392.05 164.076C1393.49 164.456 1394.98 164.828 1396.5 165.18C1395.9 166.44 1395.4 167.739 1395 169.065C1394.16 171.9 1393.79 174.843 1393.91 177.78C1393.94 178.724 1394.04 179.665 1394.2 180.594L1394.38 181.637C1394.38 181.637 1394.43 181.244 1394.5 180.576C1394.6 179.666 1394.76 178.761 1394.98 177.87C1396.02 173.508 1398.25 169.486 1401.45 166.23L1403.02 166.523C1402.73 167.18 1402.47 167.865 1402.25 168.541C1401.38 171.171 1400.95 173.912 1400.98 176.663C1400.97 177.542 1401.03 178.42 1401.16 179.289C1401.26 179.911 1401.32 180.269 1401.32 180.269L1401.49 179.281C1401.62 178.435 1401.81 177.6 1402.07 176.781C1402.8 174.35 1403.92 172.043 1405.39 169.946C1406.05 169.007 1406.79 168.117 1407.59 167.285C1409.43 167.566 1411.29 167.826 1413.2 168.047C1413.09 168.835 1412.98 169.684 1412.93 170.461C1412.76 172.966 1412.91 175.478 1413.37 177.94C1413.56 179.032 1413.83 180.109 1414.17 181.166C1414.19 180.08 1414.29 178.996 1414.44 177.918C1414.78 175.618 1415.41 173.363 1416.31 171.202C1416.66 170.304 1417.07 169.424 1417.52 168.565C1419.55 168.748 1421.62 168.895 1423.72 168.987C1423.5 170.015 1423.33 171.053 1423.22 172.096C1422.96 174.599 1423.03 177.119 1423.43 179.597C1423.59 180.692 1423.83 181.774 1424.14 182.837C1424.19 181.744 1424.31 180.655 1424.5 179.576C1425.12 175.865 1426.53 172.312 1428.65 169.144L1431.79 169.172C1431.86 169.885 1431.98 170.591 1432.14 171.288C1432.27 171.91 1432.44 172.523 1432.64 173.125C1433.01 171.738 1433.56 170.402 1434.28 169.149C1436.51 169.108 1438.75 169.032 1441.05 168.915C1441.04 170.404 1441.13 171.891 1441.33 173.365C1441.69 175.954 1442.38 178.487 1443.38 180.906C1443.7 181.69 1444.07 182.456 1444.47 183.203L1444.92 184.038C1444.69 182.925 1444.53 181.798 1444.44 180.664C1444.25 178.226 1444.39 175.771 1444.86 173.36C1445.16 171.723 1445.6 170.111 1446.18 168.543C1447.68 168.417 1449.2 168.272 1450.74 168.106L1453.74 179.025L1455.21 167.574C1457.08 167.257 1458.99 167.029 1460.89 166.707C1461.77 167.871 1462.57 169.081 1463.3 170.332C1464.97 173.158 1466.34 176.143 1467.39 179.241C1467.39 179.241 1467.43 178.002 1467.35 176.048C1467.24 173.724 1466.97 171.411 1466.54 169.127C1466.35 167.992 1466.08 166.87 1465.8 165.813L1468.39 165.373C1468.89 165.785 1469.39 166.212 1469.89 166.719C1471.29 167.949 1472.5 169.359 1473.49 170.911C1473.78 171.434 1473.99 171.997 1474.12 172.581C1474.18 172.81 1474.22 173.044 1474.24 173.281C1474.33 173.054 1474.41 172.822 1474.47 172.586C1474.6 171.931 1474.64 171.261 1474.58 170.598C1474.26 168.612 1473.67 166.678 1472.82 164.846L1472.68 164.567L1475.87 163.851C1477.15 164.808 1478.35 165.849 1479.48 166.968C1481.26 168.863 1482.84 170.935 1484.17 173.15C1484.79 174.183 1485.35 175.247 1485.86 176.338C1485.72 175.129 1485.52 173.929 1485.25 172.744C1484.6 170.089 1483.65 167.513 1482.42 165.061C1481.97 164.146 1481.46 163.273 1480.95 162.415L1484.5 161.493C1487.1 163.388 1489.09 165.956 1490.25 168.905C1490.52 169.586 1490.74 170.287 1490.9 171.003C1490.99 171.531 1491.04 171.827 1491.04 171.827L1491.14 170.977C1491.24 170.222 1491.28 169.461 1491.26 168.702C1491.18 166.302 1490.65 163.94 1489.7 161.733C1489.48 161.226 1489.23 160.74 1488.98 160.254L1492.25 159.316C1492.47 159.423 1492.7 159.528 1492.96 159.676C1494.48 160.464 1495.9 161.434 1497.18 162.563C1498.52 163.739 1499.7 165.077 1500.68 166.545C1501.16 167.229 1501.59 167.942 1501.97 168.679C1501.94 167.831 1501.84 166.986 1501.69 166.15C1501.37 164.252 1500.81 162.402 1500.02 160.641C1499.52 159.541 1498.95 158.478 1498.3 157.459L1500.94 156.612C1501.85 157.317 1502.69 158.101 1503.46 158.954C1504.72 160.362 1505.78 161.932 1506.6 163.623C1506.99 164.424 1507.31 165.251 1507.58 166.097C1507.66 165.194 1507.68 164.287 1507.64 163.383C1507.55 161.312 1507.16 159.266 1506.49 157.304C1506.22 156.547 1505.91 155.803 1505.57 155.076L1510.14 153.486C1511.51 154.368 1512.79 155.373 1513.96 156.488C1514.95 157.425 1515.54 158.123 1515.54 158.123C1515.36 157.381 1515.14 156.65 1514.88 155.932C1514.44 154.693 1513.9 153.489 1513.27 152.331L1517.34 150.81C1519.2 151.445 1521 152.244 1522.71 153.197C1522.04 151.957 1521.28 150.759 1520.45 149.611C1522.33 148.877 1524.19 148.129 1526.02 147.372C1526.62 147.689 1527.19 148.058 1527.73 148.474C1528.27 148.883 1528.78 149.332 1529.25 149.817C1529.09 149.145 1528.88 148.485 1528.62 147.844C1528.45 147.456 1528.23 147.014 1527.99 146.559C1553.09 136.11 1577.13 123.384 1599.79 108.554L1606.3 104.123L1598.9 101.52C1591.84 99.002 1590.49 98.5742 1568.45 81.489C1563 77.2586 1557.31 73.3283 1551.41 69.7164C1552.31 68.9655 1553.12 68.1193 1553.83 67.1937C1554.22 66.6907 1554.56 66.1611 1554.87 65.6092C1554.32 65.899 1553.76 66.1551 1553.18 66.376C1551.96 66.8273 1550.68 67.1139 1549.38 67.2275C1548.63 67.29 1547.88 67.2883 1547.14 67.2224C1546.19 66.6798 1545.3 66.1263 1544.27 65.6284C1545.06 64.8381 1545.76 63.9679 1546.36 63.0331C1547.37 61.4647 1548.04 59.7181 1548.33 57.8997C1548.42 57.3309 1548.46 56.7567 1548.45 56.1826C1548.38 55.7781 1548.35 55.5603 1548.35 55.5603L1548.08 56.1337C1547.84 56.6272 1547.56 57.1025 1547.24 57.5555C1546.33 58.8534 1545.15 59.9575 1543.78 60.798C1542.53 61.5702 1541.13 62.0904 1539.67 62.3272C1539.23 62.4082 1538.78 62.4467 1538.33 62.442L1537.99 62.4992L1536.73 61.9124C1537.61 60.9027 1538.38 59.8017 1539.01 58.6302C1540.04 56.7872 1540.69 54.7681 1540.92 52.6898C1540.98 52.0383 1540.99 51.3839 1540.95 50.7319L1540.83 50.0163L1540.6 50.6959C1540.39 51.294 1540.13 51.8739 1539.81 52.4288C1538.96 53.9737 1537.81 55.3443 1536.41 56.462C1535.02 57.5797 1533.41 58.4224 1531.69 58.9419C1531.35 59.0196 1531 59.0779 1530.66 59.1165L1530.48 59.0504C1531.14 58.1051 1531.73 57.1125 1532.23 56.0815C1533.15 54.2181 1533.75 52.2304 1534.03 50.1913C1534.16 49.3021 1534.22 48.4043 1534.19 47.508C1533.84 48.3295 1533.42 49.123 1532.94 49.8809C1531.11 52.9311 1528.39 55.3968 1525.12 56.9652L1522.54 56.0257C1523.79 54.6083 1524.91 53.096 1525.9 51.504C1527.31 49.2355 1528.4 46.8016 1529.15 44.2649C1529.44 43.2551 1529.63 42.3916 1529.74 41.7961C1529.86 41.2006 1529.92 40.8549 1529.92 40.8549L1529.47 41.7153C1529.17 42.2448 1528.75 42.9882 1528.17 43.8549C1525.43 47.9056 1521.67 51.2164 1517.24 53.4675L1516.25 53.956L1514.24 53.3674L1514.74 52.7065C1516.01 50.8713 1516.95 48.8455 1517.52 46.7148C1517.7 46.0339 1517.83 45.3434 1517.92 44.6475L1518 43.8809L1517.62 44.5694C1517.31 45.1897 1516.95 45.7857 1516.55 46.3515C1515.38 47.952 1513.93 49.3495 1512.28 50.4834C1511.32 51.117 1510.3 51.6642 1509.24 52.1179C1507.62 51.721 1505.98 51.3579 1504.35 51.0259C1504.64 50.4965 1504.94 49.9332 1505.21 49.3754C1506.13 47.5599 1506.92 45.6886 1507.58 43.774C1508.08 42.2329 1508.33 41.1974 1508.33 41.1974C1506.6 43.4405 1504.65 45.5181 1502.51 47.4009C1501.43 48.341 1500.31 49.2214 1499.13 50.0379C1497.68 49.8186 1496.24 49.5994 1494.78 49.4295C1495.3 47.7063 1495.69 45.9503 1495.95 44.1754C1496.27 41.8373 1496.34 39.4766 1496.16 37.1299C1495.99 35.2385 1495.75 33.9995 1495.75 33.9995C1495.75 33.9995 1495.56 35.2317 1495.09 37.0244C1494.49 39.1629 1493.67 41.238 1492.64 43.2159C1491.64 45.132 1490.43 46.9447 1489.05 48.6248L1488.91 48.7921L1486.29 48.611C1486.35 47.546 1486.35 46.4244 1486.3 45.298C1486.22 43.1414 1485.96 40.9959 1485.54 38.8809C1485.25 37.1697 1484.87 36.0824 1484.87 36.0824C1484.87 36.0824 1484.77 37.236 1484.45 38.921C1484.09 40.9442 1483.57 42.9384 1482.88 44.8846C1482.46 46.0561 1481.97 47.2066 1481.42 48.3314C1479.88 48.2895 1478.3 48.2842 1476.75 48.2918C1473.63 45.0741 1471.17 41.3105 1469.5 37.1972C1468.74 35.3575 1468.37 34.0597 1468.37 34.0597C1468.37 34.0597 1468.32 35.3973 1468.45 37.4395C1468.62 39.9599 1469.04 42.4554 1469.71 44.891C1470.05 46.1292 1470.47 47.3383 1470.91 48.4952L1470.03 48.5336C1466.33 45.0375 1463.4 40.8559 1461.4 36.2327C1460.87 35.0448 1460.42 33.829 1460.04 32.5908C1460.07 33.9011 1460.18 35.2079 1460.35 36.5061C1460.74 39.4323 1461.47 42.304 1462.51 45.0692C1463.02 46.4156 1463.6 47.7327 1464.26 49.0144L1463.49 49.1453L1462.1 48.1804C1456.89 44.4458 1452.67 39.5857 1449.75 33.9809C1449.14 32.8046 1448.7 31.7904 1448.39 31.0115L1447.93 29.8728C1447.93 29.8728 1448 30.3084 1448.13 31.0707C1448.26 31.8329 1448.45 32.953 1448.67 34.2753C1449.46 37.518 1450.63 40.6597 1452.15 43.6403C1453.31 45.8809 1454.67 48.0226 1456.2 50.0435L1455.73 50.1226L1455.48 49.9403C1452.58 47.7661 1449.94 45.2833 1447.6 42.5377C1445.23 39.7378 1443.18 36.6866 1441.51 33.4407C1440.8 32.1042 1440.29 30.9426 1439.95 30.1198L1439.42 28.8338L1439.65 30.2183C1439.8 31.0894 1440.01 32.3495 1440.48 33.823C1441.47 37.4627 1442.88 40.9809 1444.67 44.3142C1445.99 46.744 1447.49 49.0732 1449.17 51.2823C1448.54 51.3887 1447.91 51.4951 1447.31 51.6921L1445.91 50.5689C1444.59 49.4581 1443.34 48.2766 1442.15 47.0298C1440.8 45.5625 1439.53 44.0184 1438.37 42.4055C1436.17 39.3088 1434.39 35.9474 1433.08 32.4036C1432.8 31.6659 1432.57 30.9849 1432.4 30.3736C1432.23 29.7622 1432.04 29.2341 1431.95 28.8507L1431.58 27.4569C1431.58 27.4569 1431.67 27.9702 1431.66 28.8998C1431.67 29.3566 1431.71 29.8834 1431.78 30.48C1431.84 31.0766 1431.93 31.7976 1432.04 32.6431C1432.63 36.5569 1433.74 40.3762 1435.33 44.0089C1436.2 45.9793 1437.21 47.8935 1438.33 49.7403C1439.17 51.0395 1439.99 52.2608 1440.8 53.3395C1439.75 53.6354 1438.69 53.9417 1437.64 54.2584C1436.71 53.7468 1435.82 53.1701 1434.98 52.5328C1433.39 51.3464 1431.72 50.0125 1430.1 48.5588C1427.12 46.0154 1424.31 43.2828 1421.7 40.379C1419.54 37.9769 1418.24 36.2454 1418.24 36.2454C1418.24 36.2454 1419.18 38.1824 1420.81 40.9782C1422.83 44.422 1425.08 47.7346 1427.54 50.8956C1428.9 52.6345 1430.33 54.313 1431.7 55.8725L1432 56.1739L1429.52 57.0898C1427.83 56.3321 1426.19 55.4534 1424.64 54.4608C1422.14 52.8745 1419.85 51.0133 1417.8 48.9138C1416.94 48.0355 1416.28 47.2672 1415.77 46.7287L1415.06 45.857C1415.06 45.857 1415.24 46.2268 1415.51 46.8684C1415.79 47.5101 1416.26 48.4539 1416.88 49.5341C1418.38 52.2178 1420.2 54.7229 1422.3 57.0009C1422.99 57.7482 1423.72 58.4717 1424.47 59.1615L1423.56 59.5558C1420.3 57.5025 1417.16 55.2782 1414.15 52.8927C1410.98 50.3643 1407.95 47.672 1405.08 44.8274C1402.73 42.4891 1401.24 40.8526 1401.24 40.8526C1401.24 40.8526 1402.37 42.7413 1404.24 45.4807C1406.54 48.851 1409.02 52.0948 1411.69 55.1975C1413.77 57.6938 1416.06 60.0585 1418.11 62.1109L1416.36 63.0158C1414.74 62.585 1412.87 62.0058 1411.1 61.3296C1409.33 60.6535 1406.79 59.6435 1404.63 58.6175C1400.63 56.704 1396.84 54.4206 1393.3 51.7987C1391.82 50.7203 1390.67 49.7483 1389.86 49.0695L1388.59 47.9712C1388.59 47.9712 1388.99 48.4328 1389.64 49.266C1390.29 50.0993 1391.3 51.2412 1392.57 52.5628C1395.67 55.8467 1399.1 58.8296 1402.81 61.4701C1404.84 62.9178 1406.97 64.2531 1409.03 65.4409L1410.53 66.2595L1408.93 67.2176C1407.92 67.1013 1406.83 66.9492 1405.73 66.7687C1403.44 66.3458 1401.19 65.7646 1398.99 65.0297C1394.8 63.6167 1390.86 61.5839 1387.33 59.0029C1386.66 58.5316 1386.02 58.0255 1385.42 57.4867C1384.84 57.0086 1384.34 56.5972 1383.96 56.229L1382.75 55.0732L1383.74 56.41C1384.05 56.854 1384.46 57.3439 1384.96 57.9163C1385.48 58.5661 1386.04 59.1873 1386.63 59.7771C1389.81 63.0752 1393.49 65.8729 1397.56 68.0713C1399.46 69.0987 1401.42 70.0012 1403.44 70.7727L1401.61 72.0261L1399.46 71.0467C1397.77 70.2764 1395.84 69.2589 1393.84 68.1095C1391.84 66.9601 1389.77 65.5984 1387.75 64.1168C1384.04 61.3999 1380.63 58.3337 1377.55 54.9625C1376.25 53.5815 1375.27 52.3563 1374.59 51.4947L1373.51 50.0781C1373.51 50.0781 1373.82 50.6338 1374.32 51.541C1374.82 52.4482 1375.61 53.8983 1376.64 55.484C1379.17 59.4353 1382.1 63.1255 1385.4 66.4987C1387.21 68.3533 1389.13 70.1082 1391 71.6948C1392.88 73.2814 1394.72 74.6347 1396.35 75.7507L1395.7 76.2441L1395.1 76.0413C1392.68 75.2199 1389.93 74.0688 1387.01 72.7556C1384.08 71.4424 1381.08 69.8391 1378.13 68.0977C1372.7 64.8758 1367.62 61.1245 1362.98 56.9016C1362.02 56.0397 1361.16 55.2263 1360.43 54.4845C1359.71 53.7427 1359.04 53.1198 1358.45 52.5639L1356.83 50.822L1358.21 52.732C1358.65 53.3619 1359.22 54.1621 1359.86 54.902C1360.5 55.6419 1361.25 56.651 1362.12 57.7187C1366.26 62.5741 1370.89 67.0057 1375.96 70.9454C1378.76 73.0956 1381.64 75.0895 1384.52 76.8574C1386.65 78.0966 1388.72 79.3467 1390.63 80.3358L1389.64 81.1747L1388.8 80.9661C1385.91 80.2242 1383.07 79.3384 1380.28 78.3122C1377.07 77.1067 1373.92 75.7371 1370.87 74.2091C1365.1 71.282 1359.71 67.7289 1354.79 63.6177C1353.77 62.7667 1352.85 61.9771 1352.08 61.2279C1351.31 60.4787 1350.59 59.8796 1350.1 59.3073L1348.4 57.5946L1349.88 59.5037C1350.35 60.1126 1350.95 60.8269 1351.66 61.652C1352.36 62.477 1353.16 63.3818 1354.07 64.348C1358.56 69.1325 1363.61 73.3995 1369.11 77.0664C1372.08 79.0252 1375.15 80.8287 1378.31 82.4694C1380.64 83.6759 1382.84 84.6315 1384.89 85.4845L1384.33 86.0109C1382.91 85.9161 1381.33 85.7342 1379.64 85.4937C1377.58 85.1465 1375.54 84.6899 1373.54 84.1259C1369.72 83.0361 1366.06 81.5076 1362.63 79.5729C1361.2 78.7901 1360.07 78.0387 1359.28 77.4999L1358.04 76.6532L1359.08 77.7248C1360 78.6769 1360.98 79.5807 1362 80.4323C1365.11 83.0833 1368.54 85.3655 1372.21 87.2316C1372.99 87.6277 1373.8 87.9872 1374.58 88.3338C1372.88 88.031 1371.15 87.6194 1369.41 87.161C1366.11 86.245 1362.87 85.1312 1359.72 83.8261C1356.59 82.466 1353.56 80.9053 1350.64 79.1542C1348.07 77.5964 1345.6 75.876 1343.26 74.0038L1341.78 72.8138L1340.5 71.6871C1339.7 70.9744 1338.99 70.3415 1338.52 69.7975L1336.79 68.0903L1338.81 70.1327C1339.28 70.7572 1339.9 71.4531 1340.61 72.2599L1341.76 73.5539C1342.18 73.9789 1342.62 74.4478 1343.1 74.9268C1345.23 77.1049 1347.52 79.1403 1349.93 81.019C1352.74 83.1755 1355.69 85.1504 1358.77 86.9313C1361.9 88.6802 1365.13 90.243 1368.46 91.6111C1371.19 92.6816 1373.99 93.6138 1376.82 94.4039L1376.19 95.1022L1375.52 95.1052C1372.55 95.0957 1369.59 94.9127 1366.66 94.5571C1363.27 94.1055 1359.91 93.4329 1356.62 92.5439C1353.32 91.6272 1350.08 90.485 1346.95 89.1257C1344.19 87.9184 1341.52 86.5252 1338.97 84.9564L1337.36 83.9647L1335.95 82.9871C1335.07 82.3841 1334.28 81.8609 1333.7 81.3672L1331.79 79.8665L1333.51 81.5765C1334.05 82.1406 1334.75 82.758 1335.57 83.4679C1335.96 83.8334 1336.39 84.2089 1336.85 84.6102C1337.32 85.0114 1337.83 85.3889 1338.35 85.7974C1340.72 87.6766 1343.22 89.3913 1345.84 90.9288C1348.91 92.743 1352.1 94.3412 1355.4 95.711C1357.19 96.4493 1359.09 97.1036 1360.94 97.6856C1358.24 97.2793 1355.43 96.7467 1352.64 96.0503C1349.27 95.2043 1345.96 94.1624 1342.72 92.9301C1339.88 91.822 1337.11 90.543 1334.43 89.1008L1332.74 88.2033L1331.25 87.3198C1330.31 86.7589 1329.42 86.2859 1328.84 85.8232L1326.79 84.4743L1328.71 86.0527C1329.3 86.562 1330.06 87.153 1330.92 87.808L1332.31 88.8689L1333.9 89.9749C1336.43 91.7516 1339.07 93.3723 1341.82 94.8276C1344.98 96.5027 1348.25 97.9907 1351.6 99.2834C1354.99 100.548 1358.46 101.623 1361.99 102.501C1363.99 102.962 1365.91 103.357 1367.72 103.69C1365.76 103.831 1363.57 103.913 1361.26 103.953C1358.13 103.936 1355 103.766 1351.89 103.443C1346.02 102.802 1340.25 101.542 1334.69 99.6839C1333.53 99.3195 1332.49 98.936 1331.57 98.6111C1330.65 98.2863 1329.8 97.9661 1329.19 97.67L1327.15 96.7986L1329.01 97.9415C1329.61 98.3026 1330.38 98.7169 1331.25 99.1616C1332.12 99.6062 1333.08 100.164 1334.21 100.677C1339.64 103.293 1345.35 105.33 1351.24 106.753C1353.59 107.3 1355.95 107.733 1358.28 108.106C1355.22 108.447 1351.97 108.775 1348.72 108.893C1342.93 109.217 1337.13 108.575 1331.58 106.995C1329.74 106.442 1327.95 105.721 1326.25 104.842C1325.62 104.548 1325.17 104.24 1324.84 104.056L1324.34 103.772L1324.8 104.127C1325.09 104.35 1325.51 104.695 1326.09 105.092C1327.67 106.204 1329.36 107.166 1331.13 107.967C1336.62 110.339 1342.51 111.779 1348.52 112.223C1352.82 112.616 1357.1 112.69 1360.89 112.721C1359.5 113.148 1358.01 113.56 1356.42 113.957C1350.76 115.261 1344.92 115.66 1339.14 115.14C1336.59 114.908 1334.06 114.491 1331.57 113.893L1330 113.519L1328.61 113.099C1327.73 112.831 1326.96 112.594 1326.34 112.347L1324.4 111.62L1326.22 112.607C1326.79 112.943 1327.53 113.282 1328.37 113.667L1329.7 114.29L1331.23 114.895C1333.68 115.846 1336.2 116.623 1338.77 117.22C1341.75 117.885 1344.78 118.334 1347.84 118.563C1350.15 118.708 1352.46 118.722 1354.77 118.605C1352.91 119.433 1350.96 120.228 1348.92 120.925C1346.49 121.724 1344.02 122.393 1341.52 122.93C1339.31 123.383 1337.08 123.724 1334.83 123.95C1333.85 124.117 1332.94 124.111 1332.14 124.152C1331.33 124.192 1330.61 124.25 1330.03 124.236L1328.09 124.244L1329.91 124.497C1330.49 124.591 1331.19 124.663 1332 124.734C1332.81 124.806 1333.69 124.913 1334.74 124.959C1337.05 125.087 1339.36 125.095 1341.67 124.985C1344.34 124.849 1346.99 124.565 1349.63 124.133C1348.71 124.45 1347.78 124.766 1346.84 125.054C1341.82 126.608 1336.67 127.725 1331.46 128.394C1329.34 128.754 1327.51 128.839 1326.25 128.909L1324.26 129.037L1326.25 129.198C1327.51 129.304 1329.33 129.411 1331.51 129.443C1336.89 129.533 1342.28 129.156 1347.6 128.317L1348.63 128.142L1347.92 128.423C1344.01 129.808 1339.96 130.773 1335.85 131.3C1334.48 131.494 1333.1 131.62 1331.72 131.679L1330.08 131.765L1331.64 131.981C1332.64 132.116 1334.07 132.273 1335.81 132.362C1338.2 132.486 1340.59 132.466 1342.98 132.301C1341.82 132.801 1340.64 133.273 1339.44 133.748C1335.33 135.334 1331.14 136.701 1326.88 137.843C1323.36 138.776 1320.97 139.26 1320.97 139.26C1320.97 139.26 1323.4 139.186 1327.06 138.87C1331.54 138.465 1336.01 137.815 1340.43 136.925L1341.07 136.816L1339.27 137.537C1334.61 139.352 1329.8 140.776 1324.9 141.796C1322.87 142.22 1321.16 142.429 1319.97 142.63L1318.1 142.947L1320 142.978C1321.21 142.981 1322.94 142.959 1324.95 142.86C1330.08 142.583 1335.18 141.88 1340.2 140.757C1341.28 140.574 1342.33 140.251 1343.38 139.962L1342.57 140.387C1339.69 141.8 1336.73 143.05 1333.7 144.131C1328.27 146.2 1322.59 147.565 1316.8 148.192C1316.22 148.245 1315.63 148.27 1315.04 148.266ZM1496.11 144.052L1498.35 142.073C1502.52 138.154 1506.11 133.688 1509.01 128.81C1510.35 126.58 1511.55 124.271 1512.59 121.898C1513.15 120.779 1513.47 119.572 1513.92 118.473C1514.36 117.373 1514.75 116.236 1515 115.089C1515.25 113.942 1515.54 112.87 1515.78 111.756C1516.07 110.724 1516.29 109.677 1516.44 108.62C1516.67 106.549 1517.02 104.601 1517.1 102.762C1517.19 100.923 1517.2 99.1942 1517.2 97.626C1517.2 96.0578 1516.93 94.5671 1516.8 93.2596L1516.61 91.4204C1516.51 90.8604 1516.42 90.3315 1516.35 89.8648C1516.18 88.8847 1515.96 88.0583 1515.81 87.3793L1515.37 85.3578C1515.37 85.3578 1515.37 86.0925 1515.38 87.4685C1515.38 88.1721 1515.4 89.0651 1515.41 90.023C1515.49 90.5052 1515.44 91.0587 1515.42 91.6223C1515.4 92.1859 1515.32 92.7915 1515.27 93.4227C1515.16 94.7062 1515.08 96.0959 1514.92 97.5953C1514.76 99.0947 1514.39 100.726 1514.09 102.457C1513.78 104.189 1513.17 105.957 1512.68 107.848C1512.31 109.11 1511.82 110.395 1511.31 111.712C1515.45 97.2138 1513.55 81.7882 1506.03 68.7606C1509.51 69.7706 1513.43 71.0913 1517.32 72.5601C1522.28 74.4828 1527.13 76.6467 1531.86 79.0437C1535.77 80.9902 1538.3 82.4338 1538.3 82.4338C1538.3 82.4338 1536.01 80.6455 1532.44 78.1614C1528.87 75.6774 1523.94 72.5112 1518.8 69.6532C1517.12 68.7218 1515.41 67.8271 1513.74 66.9736C1516.59 67.8045 1519.3 68.6884 1521.89 69.6591C1526.87 71.4228 1531.35 73.3854 1535.32 75.1781L1540.74 77.8755L1545.36 80.2939C1548.09 81.8319 1550.32 82.9742 1551.78 83.8632L1554.04 85.0806L1552.21 83.2626C1551 82.0756 1549.2 80.3793 1546.79 78.2908L1542.73 74.9462C1541.46 73.9128 1540.03 72.8912 1538.52 71.8027C1547.18 76.4492 1555.41 81.8127 1563.11 87.8339C1578.04 99.403 1583.94 103.701 1588.65 106.152C1583.31 109.488 1574.8 114.595 1564.04 120.368L1565.53 119.349C1569.37 116.874 1572.6 114.535 1575.24 112.615C1577.88 110.696 1579.92 109.103 1581.31 108.035L1583.39 106.338C1583.39 106.338 1580.06 108.102 1574.25 111.086C1572.81 111.828 1571.2 112.627 1569.41 113.507C1567.62 114.386 1565.76 115.341 1563.71 116.329C1561.66 117.317 1559.5 118.386 1557.18 119.435C1554.85 120.485 1552.49 121.717 1549.93 122.839C1544.86 125.17 1539.33 127.578 1533.49 130.121C1530.54 131.324 1527.53 132.618 1524.42 133.848C1521.32 135.078 1518.21 136.308 1514.91 137.555L1505 141.154L1496.11 144.052ZM1432.8 141.973L1432.65 137.005L1429.17 139.643L1431.63 130.089L1425.25 136.738C1425.19 136.411 1425.33 136.052 1425.39 135.691C1425.66 134.073 1426.1 132.483 1426.69 130.942C1425.15 131.846 1423.7 132.9 1422.38 134.087L1422.21 134.245L1422.27 133.738C1422.48 132.286 1422.79 130.848 1423.2 129.436C1421.83 130.229 1420.53 131.119 1419.29 132.098L1422.48 124.678L1415.94 129.69L1416.02 129.5C1416.7 128.056 1417.47 126.657 1418.34 125.314C1416.79 125.803 1415.27 126.387 1413.78 127.062L1414.07 126.278C1414.53 125.086 1415.07 123.924 1415.7 122.801C1414.36 123.033 1413.04 123.358 1411.75 123.773C1411.41 123.831 1411.09 123.981 1410.76 124.101C1411.21 123.497 1411.72 122.868 1412.24 122.251C1413.51 120.727 1414.87 119.274 1416.31 117.897C1414.28 118.325 1412.27 118.867 1410.3 119.522C1409.83 119.666 1409.36 119.826 1408.89 120.001L1408.88 119.908C1409.42 118.993 1409.86 118.023 1410.18 117.015C1409.18 117.121 1408.18 117.118 1407.19 117.008L1406.62 116.93L1409.56 113.071L1406.49 113.27L1406.86 112.904C1408.1 111.72 1409.41 110.611 1410.79 109.582C1409 109.577 1407.21 109.677 1405.42 109.883L1405.2 109.921L1409.12 107.145L1403.52 106.749L1411.26 102.669L1405.18 101.603L1408.1 99.8445L1405.32 98.634L1413.89 97.9512L1407.56 95.295C1408.81 94.9083 1410.02 94.4243 1411.19 93.8477C1410.08 93.3401 1409.02 92.7444 1408.01 92.0667L1414 90.8598L1411.3 89.1086L1415.6 89.1487L1412.62 86.7092L1418.86 87.0606L1415.93 84.3558L1421.61 84.9948L1417.14 81.5419L1422.52 82.4871L1420.2 79.5514L1425.34 79.834L1423.42 76.8302L1428.78 79.123L1426.16 74.6061L1429.78 75.3217L1429.25 72.8984C1429.58 73.0022 1429.93 73.1032 1430.28 73.2353C1431.45 73.6618 1432.58 74.1823 1433.66 74.7914C1433.52 73.6462 1433.3 72.5131 1432.99 71.401L1437.11 73.5196L1435.95 69.4918L1440.37 71.416L1440.68 68.3705L1443.77 71.1441L1444.12 67.5479L1446.13 70.4082L1446.34 66.0031L1448.69 69.5252L1450.49 66.2288L1452.31 70.3213L1454.13 65.6434L1455.8 69.2179L1457.83 64.3929L1458.95 67.1645L1461.08 63.8108L1462.64 66.8591L1464.27 64.4545L1465.64 67.4239L1467.89 64.29L1469.6 71.8416L1472.41 65.3642L1473.35 70.1337L1476.3 65.4103L1477.68 69.2727L1480.71 65.9428L1480.6 70.2666L1484.93 66.5081L1483.82 70.7128L1487.73 68.9154C1487.5 69.4028 1487.25 69.9085 1487.02 70.427C1485.98 72.755 1485.11 75.1488 1484.41 77.5909C1486.08 75.7314 1487.89 73.9827 1489.8 72.3567C1490.6 71.6778 1491.42 71.0428 1492.18 70.4809L1491.83 71.9325L1494.32 71.1281L1491.99 75.5063L1497.42 72.3619L1492.47 78.161L1500.15 75.2605L1496.06 79.4429L1502.34 78.2985L1499.04 81.8019L1504.17 81.5575C1504.2 81.7286 1504.22 81.8841 1504.25 82.0397L1495.11 86.7878L1504.53 86.5057L1499.34 88.9834L1505.98 90.1157L1505.18 90.4909C1503.14 91.4448 1500.97 92.244 1500.97 92.244C1500.97 92.244 1502.93 93.0485 1505.09 93.7396L1502 95.0942L1504.49 96.7692L1497.37 97.6557L1504.04 100.159L1501.01 100.895L1503.96 103.293L1501.11 103.903L1502.98 105.778L1497.24 106.014L1503.41 109.77L1499.14 109.805L1501.76 112.419L1497.8 112.433L1500.47 115.262L1494.72 113.419L1496.96 116.848L1493.34 116.117L1496.9 120.746L1492.97 120.004L1495.17 123.889L1491.47 122.787L1493.81 126.823L1488.47 124.67L1490.44 127.793L1486.11 125.567L1489.1 130.741L1486.33 129.611L1486.95 131.457L1482.5 128.242L1484.31 132.945L1480.48 130.489L1481.9 135.161L1479.64 133.752L1479.73 137.928L1475.15 132.799L1476.36 139.924C1475.86 139.336 1475.3 138.694 1474.72 138.089C1473.43 136.724 1472.07 135.427 1470.63 134.204C1471.03 135.966 1471.33 137.747 1471.54 139.54C1471.62 140.007 1471.69 140.443 1471.68 140.892L1466.64 135.058L1467.26 141.946L1464.86 138.943L1464.26 142.469L1460.49 133.906L1459.47 143.393L1456.66 136.619L1454.6 145.689L1451.49 137.079L1449.88 144.905C1449.76 144.657 1449.65 144.404 1449.55 144.144C1449.01 142.84 1448.58 141.494 1448.27 140.12C1447.5 141.292 1446.82 142.515 1446.23 143.779L1444.42 135.587L1441.32 144.37C1441.14 143.786 1440.99 143.19 1440.89 142.587C1440.58 140.965 1440.44 139.315 1440.48 137.663C1439.32 139.027 1438.32 140.506 1437.49 142.075L1437.2 142.62C1437.11 142.075 1437.01 141.515 1437.04 140.918C1436.94 139.13 1436.99 137.335 1437.18 135.55C1435.9 136.972 1434.74 138.489 1433.72 140.088C1433.38 140.834 1433.06 141.384 1432.75 141.916L1432.8 141.973ZM1355.2 138.648C1359.1 131.633 1363.38 124.819 1368.02 118.235C1367.57 119.03 1367.17 119.818 1366.76 120.577L1364.51 125.325C1363.82 126.738 1363.31 128.025 1362.83 129.164L1361.65 132.034C1361.04 133.61 1360.7 134.436 1360.7 134.436L1362.29 132.359C1363.3 131.003 1364.75 128.982 1366.67 126.497L1369.84 122.374L1373.66 117.599C1375.02 115.88 1376.52 114.154 1378.12 112.316L1380.55 109.487L1382.91 106.944L1382.4 107.766C1376.73 117.047 1372.06 126.751 1372.06 126.751C1372.06 126.751 1378.22 117.85 1385.22 109.656C1388.85 105.33 1392.67 101.209 1395.51 98.3118C1395.57 109.508 1399.07 120.396 1405.56 129.59C1404.67 128.541 1403.8 127.52 1403.06 126.477C1401.99 124.85 1400.88 123.359 1399.96 121.85C1399.04 120.341 1398.36 118.921 1397.57 117.534C1396.79 116.146 1396.39 114.853 1395.86 113.695C1395.6 113.1 1395.35 112.549 1395.13 112.026C1394.91 111.503 1394.77 110.983 1394.61 110.514C1394.3 109.574 1394.03 108.771 1393.81 108.122C1393.35 106.806 1393.12 106.11 1393.12 106.11C1393.12 106.11 1393.24 106.825 1393.34 108.216C1393.46 108.901 1393.53 109.786 1393.64 110.758C1393.73 111.256 1393.82 111.8 1393.91 112.314C1393.99 112.827 1394.11 113.496 1394.34 114.112C1394.66 115.371 1394.98 116.804 1395.39 118.336C1395.8 119.867 1396.51 121.346 1397.17 123.155C1397.82 124.965 1398.81 126.59 1399.72 128.467C1400.2 129.421 1400.75 130.338 1401.36 131.214C1401.95 132.154 1402.58 133.089 1403.2 134.104C1403.82 135.119 1404.65 135.938 1405.33 136.942C1406.07 137.915 1406.86 138.85 1407.7 139.743C1409.47 141.643 1411.36 143.433 1413.36 145.105C1417.71 148.749 1422.57 151.783 1427.79 154.118L1431.99 155.823L1432.14 155.799L1431.39 155.797C1424.84 155.835 1418.29 155.435 1411.8 154.602C1408.7 154.264 1405.75 153.563 1402.81 153.149C1399.87 152.734 1397.16 151.897 1394.5 151.355C1391.84 150.813 1389.29 149.918 1386.97 149.142L1383.46 147.992L1381.71 147.456L1380.13 146.828C1378.06 146.027 1376.11 145.269 1374.33 144.481L1371.77 143.316L1369.48 142.215C1366.41 140.76 1363.44 139.126 1360.58 137.321C1360.58 137.321 1361.2 137.983 1362.54 139.133C1364.43 140.779 1366.41 142.323 1368.48 143.761L1370.6 145.241L1373 146.756C1374.64 147.854 1376.53 148.846 1378.51 149.967L1380.04 150.795L1381.67 151.592L1385.06 153.242L1386.23 153.764C1375.17 150.204 1364.72 145.113 1355.2 138.648Z" fill="white" fill-opacity="0.2"/>
<path d="M1375.38 139.872C1377.65 140.783 1380.35 141.735 1383.26 142.713C1386.18 143.691 1389.24 144.757 1392.37 145.684C1395.49 146.612 1398.6 147.638 1401.55 148.434C1404.5 149.23 1407.27 150.041 1409.67 150.611C1412.07 151.181 1414.04 151.759 1415.45 152.08L1417.66 152.667L1415.37 152.589C1413.92 152.5 1411.84 152.34 1409.34 152.01C1406.85 151.68 1404 151.187 1400.94 150.617C1397.88 150.048 1394.67 149.087 1391.48 148.171C1388.29 147.255 1385.23 146.028 1382.34 144.806C1379.45 143.583 1376.95 142.295 1374.7 141.171C1372.46 140.047 1370.76 138.942 1369.52 138.191L1367.65 136.908L1369.79 137.683C1371.11 138.274 1373.05 139.066 1375.38 139.872Z" fill="white" fill-opacity="0.2"/>
<path d="M1521.15 131.026C1524.03 129.738 1527.29 128.193 1530.93 126.473C1534.57 124.753 1538.32 123.061 1542.1 121.22C1545.88 119.379 1549.79 117.694 1553.28 115.967C1556.76 114.241 1560.19 112.748 1563.02 111.357C1565.85 109.966 1568.28 108.866 1569.95 108.102L1572.6 106.917L1570.21 108.554C1568.73 109.558 1566.45 110.984 1563.77 112.654C1561.08 114.325 1557.82 116.094 1554.37 118.022C1550.92 119.951 1547.08 121.769 1543.27 123.63C1539.46 125.492 1535.57 127.048 1531.88 128.584C1528.2 130.12 1524.72 131.397 1521.73 132.416C1518.74 133.435 1516.19 134.234 1514.42 134.773L1511.61 135.585L1514.23 134.294C1515.9 133.53 1518.36 132.394 1521.15 131.026Z" fill="white" fill-opacity="0.2"/>
<path d="M1554.15 112.219L1547.58 115.684L1539.92 119.397L1532.11 122.784L1525.19 125.557L1520.2 127.298L1518.28 127.895L1519.99 126.837L1524.51 124.199L1531.08 120.734L1538.74 117.021L1546.55 113.634L1553.47 110.861L1558.44 109.107L1560.36 108.51L1558.67 109.58L1554.15 112.219Z" fill="white" fill-opacity="0.2"/>
<path d="M1401.78 145.61L1396.77 144.41L1391.16 142.687L1385.68 140.575L1381.05 138.447L1377.86 136.715L1376.67 135.988L1378.06 136.234L1381.61 137.041L1386.54 138.413L1392.11 140.19L1397.58 142.225L1402.29 144.196L1405.55 145.755L1406.79 146.41L1405.39 146.247L1401.78 145.61Z" fill="white" fill-opacity="0.2"/>
<path d="M83.7089 353.607C39.4007 353.607 3.31909 389.816 3.31909 434.281C3.31909 478.745 39.4007 514.954 83.7089 514.954C128.017 514.954 164.099 478.745 164.099 434.281C164.243 389.816 128.161 353.607 83.7089 353.607ZM160.491 440.509C159.625 451.227 156.449 461.22 151.831 469.766C147.357 478.311 141.295 485.553 135.089 491.201C128.739 496.85 122.1 500.905 115.749 503.657C109.543 506.409 103.77 508.002 99.0075 508.871C94.2447 509.74 90.3479 509.885 87.7501 510.03C85.1522 510.03 83.7089 510.03 83.7089 510.03C83.7089 510.03 85.1522 509.885 87.7501 509.885C90.3479 509.595 94.1004 509.306 98.8632 508.147C103.626 507.133 109.255 505.25 115.172 502.354C121.234 499.457 127.584 495.257 133.646 489.608C139.563 483.959 145.192 476.862 149.377 468.462C153.563 460.062 156.305 450.358 157.171 440.219C157.893 429.936 156.594 419.363 152.986 409.369C150.388 401.982 146.347 395.03 141.584 388.802C143.027 393.727 144.615 400.534 145.192 408.355C145.048 408.21 144.903 408.066 144.759 407.921C143.893 407.197 142.883 406.907 142.305 406.907C142.017 406.907 141.728 407.052 141.584 407.052C141.439 407.052 141.295 407.197 141.295 407.197C141.295 407.197 141.439 407.197 141.584 407.197C141.728 407.197 142.017 407.341 142.161 407.486C142.594 407.776 143.171 408.21 143.749 408.935C144.182 409.659 144.615 410.673 144.759 411.686C144.759 411.831 144.759 411.976 144.759 412.121V412.555C144.759 412.845 144.759 413.135 144.759 413.28C144.759 413.859 144.615 414.294 144.47 414.873C144.326 415.307 144.037 415.742 143.749 416.032C143.46 416.321 143.316 416.466 142.738 416.611C142.594 416.611 142.017 416.611 141.728 416.466C141.295 416.321 141.007 416.032 140.574 415.742C139.852 415.163 139.419 414.438 139.13 414.004C138.842 413.569 138.697 413.135 138.697 413.135C138.697 413.135 138.697 413.28 138.697 413.424C138.697 413.569 138.697 413.859 138.697 414.149C138.697 414.728 138.842 415.742 139.419 416.611C139.708 417.045 140.141 417.625 140.718 418.059C141.295 418.494 142.017 418.928 143.027 418.928C143.749 418.928 144.903 418.639 145.481 418.059L145.625 417.914C145.481 422.404 144.903 427.184 143.893 432.108C144.903 432.108 145.625 431.674 146.202 431.239C146.78 430.805 147.213 430.37 147.501 429.936C147.79 429.501 148.078 429.212 148.223 429.067C148.367 428.922 148.511 428.777 148.511 428.777C148.511 428.777 148.511 429.067 148.511 429.356C148.511 429.791 148.367 430.37 148.078 430.95C147.79 431.529 147.213 432.253 146.491 432.832C145.769 433.412 144.903 433.701 143.893 433.701C142.883 433.701 142.017 433.412 141.295 432.832C140.574 432.253 140.141 431.529 139.852 430.95C139.563 430.37 139.419 429.646 139.419 429.356C139.419 428.922 139.419 428.777 139.419 428.777C139.419 428.777 138.842 429.067 138.697 430.37C138.697 431.094 138.697 431.963 139.419 433.122C139.996 434.136 141.295 435.295 143.171 435.584C142.883 436.453 142.738 437.322 142.45 438.191C141.295 438.191 140.285 438.626 139.563 439.495C138.264 441.088 138.553 443.55 140.141 444.854C138.986 447.751 137.543 450.792 135.955 453.689C137.398 453.834 138.553 453.399 139.419 452.965C140.574 452.385 141.295 451.661 141.872 451.082C142.45 450.502 142.738 450.068 143.027 449.923C143.316 449.633 143.46 449.633 143.46 449.633C143.46 449.633 143.316 449.923 143.171 450.647C142.883 451.227 142.45 452.096 141.728 452.965C141.006 453.834 139.996 454.558 138.697 455.137C138.12 455.427 137.398 455.572 136.677 455.572C135.955 455.572 135.233 455.572 134.512 455.282C133.79 455.137 133.069 454.703 132.491 454.413C131.914 453.978 131.337 453.544 130.904 452.965C130.038 451.806 129.605 450.647 129.46 449.489C129.316 448.33 129.316 447.461 129.46 446.882C129.605 446.302 129.605 445.868 129.605 445.868C129.605 445.868 129.46 445.868 129.316 446.157C129.027 446.447 128.739 446.882 128.45 447.895C128.306 448.764 128.017 450.213 128.739 451.951C129.027 452.82 129.605 453.834 130.471 454.703C131.337 455.572 132.491 456.441 134.079 456.875C133.502 457.889 132.78 458.903 132.203 459.917C131.77 459.917 131.337 459.917 130.904 459.917C128.45 460.351 126.863 462.379 127.151 464.407C127.151 464.551 127.295 464.841 127.295 464.986C125.564 464.551 123.976 462.958 123.543 460.496C122.821 456.151 119.069 447.171 115.605 445.288C111.853 443.261 108.822 448.185 110.842 449.778C115.461 453.254 113.151 459.917 113.584 465.71C113.729 468.027 114.883 469.91 115.894 471.648C113.584 472.373 112.141 474.545 112.574 476.573C112.719 477.731 113.44 478.6 114.45 479.18C113.007 480.339 111.708 481.352 110.265 482.366C110.265 482.221 110.265 482.077 110.265 481.932C110.121 480.049 109.543 478.456 108.822 477.297C108.1 476.138 107.234 475.269 106.512 474.835C104.925 473.676 103.77 473.531 103.193 473.531C102.471 473.531 102.327 473.531 102.327 473.531C102.327 473.531 102.471 473.531 102.76 473.676C103.049 473.821 103.482 473.966 104.059 474.255C105.069 474.835 106.657 476.138 107.667 478.021C108.677 479.904 108.966 482.656 107.956 485.263C107.09 487.87 104.925 490.187 102.327 491.491C99.7291 492.794 96.554 492.939 94.1004 491.925C91.5025 490.911 89.6263 488.884 88.9047 486.856C88.0387 484.828 88.183 482.946 88.4717 481.642C88.616 481.063 88.7603 480.483 88.9047 480.194C89.049 479.904 89.049 479.759 89.049 479.759C89.049 479.759 88.9047 479.904 88.4717 480.483C88.183 481.063 87.4614 482.077 87.3171 483.959C87.1727 484.828 87.1727 485.987 87.6057 487.435C87.8944 488.739 88.7603 490.187 90.0593 491.636C90.3479 491.925 90.6366 492.215 91.0696 492.505C89.482 493.084 87.8944 493.519 86.3068 493.953C85.8738 492.794 85.2965 492.07 84.7192 491.491C83.9976 490.767 83.2759 490.332 82.6986 490.042C81.3997 489.463 80.6781 489.463 80.1008 489.463C79.6678 489.463 79.3791 489.608 79.3791 489.608C79.3791 489.608 79.5234 489.608 79.6678 489.753C79.9564 489.898 80.2451 490.042 80.6781 490.187C81.544 490.622 82.5543 491.346 83.5646 492.505C83.9976 493.084 84.4305 493.808 84.7192 494.677C85.0079 495.546 84.8635 496.56 84.5749 497.429C83.8532 499.312 81.8327 500.471 79.8121 500.905C75.771 501.774 71.2968 499.891 69.5649 497.284C68.699 495.981 68.4103 494.677 68.5546 493.663C68.5546 493.229 68.699 492.794 68.8433 492.65C68.9876 492.36 68.9876 492.36 68.9876 492.36C68.9876 492.36 68.8433 492.36 68.4103 492.794C68.1217 493.229 67.5443 493.953 67.5443 495.401C67.5443 495.691 67.5444 496.126 67.6887 496.56C66.6784 496.56 65.6681 496.56 64.8022 496.56C64.9465 496.126 64.9465 495.546 64.8022 495.112C64.3692 492.794 61.7713 491.201 59.0291 491.781C58.8848 491.781 58.5961 491.925 58.4518 491.925C58.4518 490.911 58.7404 489.898 59.3177 489.173C61.9156 485.408 69.4206 482.656 69.7092 476.138C69.8536 471.359 49.5035 472.952 49.5035 480.628C49.6479 488.16 46.184 487.58 43.5862 491.781C43.1532 492.505 42.7202 493.084 42.2872 493.519C40.411 492.939 38.6791 492.505 37.2358 491.925C37.3801 491.781 37.3801 491.636 37.5245 491.491C38.1018 490.477 37.6688 489.029 36.3698 488.304C35.2152 487.58 33.6276 487.87 33.0503 488.884C32.906 489.173 32.906 489.318 32.7617 489.608C18.1847 475.849 9.09215 456.296 9.09215 434.57C9.09215 434.57 9.09215 433.122 9.09215 430.515C9.23647 427.908 9.3808 423.997 10.2468 419.218C11.1127 414.438 12.7003 408.645 15.4425 402.417C18.1847 396.189 22.2259 389.382 27.8546 383.154C33.4833 376.781 40.5553 370.843 49.2149 366.353C57.7302 361.718 67.6887 358.532 78.3688 357.663C88.9047 356.794 100.162 357.952 110.698 361.863C121.234 365.629 131.048 371.857 139.13 379.967C147.068 388.078 153.419 397.927 157.171 408.5C160.202 418.639 161.357 429.936 160.491 440.509Z" fill="white" fill-opacity="0.2"/>
<path d="M104.059 455.281C103.338 454.123 102.472 453.109 101.606 452.385C100.74 451.66 99.7295 451.226 98.8635 450.936C97.9976 450.647 97.2759 450.502 96.5543 450.357C95.8327 450.357 95.3997 450.357 95.111 450.357C94.8224 450.357 94.5337 450.357 94.5337 450.357C94.5337 450.357 94.6781 450.357 95.111 450.502C95.3997 450.502 95.977 450.647 96.5543 450.791C97.1316 450.936 97.8532 451.226 98.5749 451.66C99.2965 452.095 100.018 452.674 100.74 453.398C101.461 454.123 102.039 454.992 102.472 456.006C102.905 457.019 103.193 458.178 103.193 459.337C103.193 459.626 103.193 459.916 103.193 460.206C103.193 460.495 103.193 460.93 103.049 461.22C102.905 461.799 102.76 462.378 102.616 462.958C102.183 464.116 101.461 465.13 100.595 465.999C99.7295 466.868 98.7192 467.592 97.5646 468.027C96.41 468.461 95.2554 468.606 93.9564 468.606C92.8018 468.606 91.6472 468.317 90.6369 467.882C89.6266 467.448 88.7607 466.868 88.039 466.144C87.3174 465.42 86.7401 464.696 86.3071 463.971C85.8741 463.247 85.5855 462.523 85.4412 461.944C85.2968 461.364 85.1525 460.93 85.1525 460.495C85.1525 460.206 85.0082 459.916 85.0082 459.916C85.0082 459.916 85.0082 460.061 85.0082 460.495C85.0082 460.785 85.0082 461.364 85.0082 461.944C85.1525 462.523 85.1525 463.392 85.5855 464.261C85.8741 465.13 86.3071 465.999 87.0287 467.013C88.472 468.896 90.7812 470.489 93.9564 470.779C95.3997 470.924 96.9873 470.779 98.4305 470.199C99.8738 469.62 101.317 468.751 102.472 467.737C103.626 466.579 104.492 465.13 104.925 463.682C105.214 462.958 105.358 462.233 105.503 461.364C105.503 460.93 105.503 460.64 105.503 460.351C105.503 459.916 105.503 459.626 105.503 459.192C105.214 457.744 104.637 456.44 104.059 455.281Z" fill="white" fill-opacity="0.2"/>
<path d="M61.483 450.502C61.1943 448.33 59.8954 446.736 58.5965 445.722C57.8748 445.288 57.2975 444.998 56.7202 444.709C56.1429 444.564 55.5656 444.419 55.1326 444.419C54.6996 444.419 54.2667 444.419 54.1223 444.419C53.8337 444.419 53.8337 444.419 53.8337 444.419C53.8337 444.419 53.978 444.419 54.1223 444.564C54.411 444.564 54.6996 444.709 54.9883 444.853C55.7099 445.143 56.7202 445.722 57.5862 446.736C58.0192 447.171 58.4521 447.75 58.7408 448.474C59.0294 449.199 59.1738 449.923 59.1738 450.647C59.1738 450.792 59.1738 451.081 59.1738 451.226C59.1738 451.371 59.1738 451.661 59.1738 451.95C59.1738 452.24 59.0294 452.675 58.8851 452.964C58.5965 453.688 58.1635 454.413 57.7305 454.847C57.1532 455.426 56.5759 455.861 55.8543 456.151C55.1326 456.44 54.411 456.585 53.545 456.585C52.8234 456.585 52.1018 456.44 51.3801 456.151C50.6585 455.861 50.0812 455.571 49.6482 455.137C49.2152 454.702 48.7823 454.268 48.4936 453.833C48.2049 453.399 47.9163 452.964 47.772 452.53C47.6276 452.095 47.4833 451.806 47.4833 451.661C47.4833 451.371 47.339 451.371 47.339 451.371C47.339 451.371 47.339 451.516 47.339 451.661C47.339 451.95 47.339 452.24 47.339 452.675C47.339 453.109 47.4833 453.688 47.6276 454.268C47.772 454.847 48.205 455.571 48.6379 456.151C49.0709 456.73 49.7925 457.454 50.5142 457.889C51.3801 458.323 52.2461 458.758 53.4007 458.903C54.411 459.047 55.5656 458.903 56.5759 458.613C57.5862 458.323 58.5965 457.599 59.4624 456.73C60.3284 455.861 60.9057 454.847 61.1943 453.833C61.3387 453.254 61.483 452.675 61.483 452.095C61.483 451.806 61.483 451.661 61.483 451.371C61.6273 450.937 61.483 450.792 61.483 450.502Z" fill="white" fill-opacity="0.2"/>
<path d="M71.4415 432.832C72.1632 432.977 73.0291 432.977 73.7508 432.687C74.4724 432.398 75.3383 431.963 75.9156 431.384C76.493 430.804 76.9259 430.08 77.2146 429.211C77.3589 428.777 77.3589 428.487 77.3589 427.908C77.3589 427.618 77.3589 427.618 77.3589 427.473C77.3589 427.183 77.3589 427.039 77.3589 426.894C77.0703 425.301 76.2043 424.142 75.194 423.563C74.1837 422.983 73.3178 422.838 72.7405 422.838C72.1632 422.838 71.8745 422.983 71.8745 422.983C71.8745 422.983 72.0188 422.983 72.1632 423.128C72.3075 423.128 72.5961 423.273 72.7405 423.418C73.1734 423.707 73.8951 424.142 74.3281 424.721C74.9054 425.445 75.194 426.314 75.194 427.183C75.194 427.328 75.194 427.473 75.194 427.473C75.194 427.618 75.194 427.763 75.194 427.908C75.194 428.052 75.0497 428.342 75.0497 428.487C74.9054 428.921 74.6167 429.356 74.3281 429.646C74.0394 429.935 73.6064 430.225 73.1734 430.37C72.7405 430.515 72.3075 430.659 71.8745 430.659C71.4415 430.659 71.0086 430.659 70.5756 430.515C70.1426 430.37 69.7096 430.225 69.421 429.935C68.6993 429.501 68.2663 428.777 67.9777 428.342C67.8334 428.052 67.689 427.908 67.689 427.763C67.689 427.618 67.5447 427.473 67.5447 427.473C67.5447 427.473 67.5447 427.618 67.5447 427.763C67.5447 427.908 67.4004 428.197 67.4004 428.487C67.4004 429.066 67.5447 430.08 68.2663 430.949C68.555 431.384 68.988 431.818 69.5653 432.253C69.8539 432.542 70.5756 432.832 71.4415 432.832Z" fill="white" fill-opacity="0.2"/>
<path d="M31.0304 406.907C31.752 407.196 32.7623 407.196 33.6283 407.051C35.3602 406.617 36.9478 405.603 38.1024 404.155C38.6797 403.431 39.257 402.706 39.5457 401.837C39.9787 401.113 40.2673 400.099 40.2673 399.375C40.556 397.637 40.123 395.899 39.257 394.885C38.824 394.306 38.2467 394.016 37.6694 393.871C37.0921 393.727 36.6591 393.727 36.2262 393.727C35.5045 393.727 35.0715 394.016 35.0715 394.016C35.0715 394.016 35.2159 394.016 35.3602 394.016C35.5045 394.016 35.7932 394.016 36.2262 394.016C36.5148 394.016 37.0921 394.161 37.3808 394.451C37.8138 394.74 38.2467 395.03 38.5354 395.465C39.257 396.478 39.4013 397.927 39.1127 399.375C38.9684 400.099 38.6797 400.823 38.3911 401.548C38.1024 402.272 37.5251 402.996 37.0921 403.575C35.9375 404.589 34.6386 405.603 33.1953 405.893C32.4737 406.038 31.752 406.182 31.1747 406.038C30.5974 405.893 30.0201 405.603 29.5871 405.169C28.7212 404.3 28.5769 403.286 28.4325 402.562C28.4325 402.127 28.4325 401.837 28.4325 401.693C28.4325 401.548 28.4325 401.403 28.4325 401.403C28.4325 401.403 28.4325 401.548 28.4325 401.693C28.4325 401.837 28.2882 402.127 28.2882 402.562C28.2882 403.286 28.2882 404.589 29.1542 405.748C29.5871 406.182 30.1645 406.762 31.0304 406.907Z" fill="white" fill-opacity="0.2"/>
<path d="M31.0301 383.443C31.0301 383.154 31.1744 383.154 31.1744 383.154C31.1744 383.154 31.0301 383.299 31.0301 383.443C30.7414 383.588 30.5971 383.878 30.4528 384.312C30.3084 384.747 30.0198 385.326 30.0198 385.906C29.8755 386.63 29.8755 387.354 30.3084 388.223C30.5971 389.092 31.3187 389.816 32.329 390.396C32.762 390.685 33.3393 390.83 33.9166 390.975C34.2053 391.12 34.3496 391.12 34.6382 391.12H34.7826C34.9269 391.12 34.9269 391.12 35.0712 391.12H35.5042C37.6691 391.12 39.834 390.251 41.5659 388.947C42.4319 388.368 43.2978 387.644 44.0194 386.775C44.3081 386.34 44.7411 385.906 45.0297 385.471C45.3184 385.037 45.607 384.457 45.7514 384.023C46.1843 383.154 46.473 382.14 46.6173 381.126C46.7616 380.112 46.473 379.098 46.04 378.374C45.607 377.505 45.0297 377.071 44.4524 376.636C43.8751 376.346 43.2978 376.202 42.8648 376.202C41.8546 376.202 41.4216 376.346 41.4216 376.346C41.4216 376.346 41.5659 376.346 41.7102 376.491C41.9989 376.491 42.2875 376.636 42.7205 376.781C43.1535 376.926 43.5865 377.216 43.8751 377.505C44.3081 377.94 44.5968 378.374 44.7411 378.954C44.8854 379.533 44.8854 380.257 44.7411 380.981C44.5968 381.705 44.3081 382.43 43.8751 383.154C43.5865 383.588 43.4421 383.878 43.1535 384.168C42.8648 384.457 42.5762 384.892 42.2875 385.181C41.7102 385.761 40.9886 386.485 40.267 386.919C38.8237 387.933 37.0918 388.658 35.5042 388.947H35.2155H35.0712H34.9269C34.6382 388.947 34.4939 388.947 34.3496 388.947C34.0609 388.947 33.628 388.947 33.3393 388.802C32.762 388.658 32.1847 388.223 31.896 387.788C31.1744 386.775 31.1744 385.471 31.3187 384.747C30.8857 384.023 31.0301 383.733 31.0301 383.443Z" fill="white" fill-opacity="0.2"/>
<path d="M21.7931 438.77C22.3704 437.756 22.6591 436.598 22.9477 435.294C23.092 434.135 23.092 432.832 22.9477 431.673C22.8034 431.094 22.6591 430.514 22.5147 429.935C22.3704 429.645 22.2261 429.356 22.2261 429.066C22.0818 428.776 21.9374 428.632 21.7931 428.342C21.2158 427.183 20.3498 426.459 19.3395 425.88C18.3293 425.3 17.319 425.011 16.453 425.011C15.4427 425.011 14.7211 425.3 13.9995 425.59C13.2778 425.88 12.8449 426.314 12.5562 426.604C11.8346 427.473 11.5459 427.907 11.5459 427.907C11.5459 427.907 11.6902 427.763 11.8346 427.763C11.9789 427.618 12.4119 427.473 12.8449 427.183C13.2778 427.038 13.7108 426.749 14.4325 426.604C15.0098 426.459 15.7314 426.459 16.453 426.604C17.1747 426.749 17.752 427.038 18.4736 427.473C19.0509 427.907 19.6282 428.632 19.9169 429.356C20.0612 429.645 20.2055 429.79 20.2055 430.08C20.2055 430.225 20.3498 430.514 20.3498 430.659C20.4942 431.094 20.4942 431.528 20.6385 431.963C20.7828 432.832 20.7828 433.846 20.4942 434.86C20.3498 435.873 20.0612 436.742 19.6282 437.611C19.1952 438.48 18.7622 439.349 18.1849 439.929C17.4633 440.653 17.0303 441.087 16.3087 441.522C15.5871 441.957 14.8654 442.101 14.1438 442.101C13.4222 442.101 12.8449 441.957 12.2676 441.812C11.6902 441.522 11.2573 441.232 10.8243 440.943C10.3913 440.653 10.1027 440.508 9.95833 440.218C9.814 440.074 9.66968 439.929 9.66968 439.929C9.66968 439.929 9.66968 440.074 9.814 440.363C9.95833 440.653 10.1027 440.943 10.3913 441.377C10.68 441.812 11.1129 442.246 11.6902 442.681C12.2676 443.115 12.9892 443.55 13.9995 443.695C14.8654 443.839 16.02 443.839 17.0303 443.405C18.0406 443.115 19.0509 442.391 19.7725 441.667C20.6385 440.798 21.3601 439.784 21.7931 438.77Z" fill="white" fill-opacity="0.2"/>
<path d="M96.1214 377.07C97.5647 377.07 99.1522 377.07 100.596 376.781C102.039 376.491 103.482 376.056 104.925 375.332C106.08 374.753 107.379 373.594 108.1 372.291C108.389 371.567 108.678 370.842 108.678 370.118C108.678 369.394 108.533 368.815 108.245 368.235C107.812 367.077 107.09 366.208 106.369 365.628C105.647 365.049 105.07 364.614 104.492 364.325C103.915 364.035 103.482 363.89 103.193 363.745C102.905 363.601 102.76 363.601 102.76 363.601C102.76 363.601 102.905 363.745 103.193 363.89C103.482 364.035 103.915 364.47 104.348 364.759C104.781 365.194 105.358 365.773 105.791 366.353C106.224 367.077 106.802 367.801 106.946 368.67C107.09 369.539 107.09 370.553 106.513 371.277C105.936 372.146 105.07 372.725 103.915 373.305C102.905 373.739 101.606 374.029 100.307 374.318C99.0079 374.463 97.709 374.608 96.2657 374.463C94.9668 374.463 93.5235 374.174 92.2246 373.884C90.9256 373.594 89.6267 373.16 88.4721 372.725C88.1834 372.58 87.8948 372.436 87.6061 372.291C87.3175 372.146 87.0288 372.001 86.7402 371.856C86.1629 371.567 85.7299 371.277 85.2969 370.987C84.431 370.263 83.7093 369.539 83.132 368.67C82.699 367.801 82.4104 366.932 82.5547 366.208C82.699 365.484 82.9877 364.759 83.2763 364.325C83.565 363.89 83.998 363.456 84.1423 363.166C84.431 362.876 84.5753 362.876 84.5753 362.876C84.5753 362.876 84.431 363.021 84.1423 363.166C83.8536 363.311 83.4207 363.601 82.9877 364.035C82.5547 364.47 81.9774 365.194 81.6887 366.063C81.4001 366.932 81.4001 368.235 81.9774 369.394C82.4104 370.553 83.2763 371.567 84.1423 372.436C84.5753 372.87 85.1526 373.305 85.7299 373.739C86.0185 373.884 86.3072 374.029 86.5958 374.318C86.8845 374.463 87.1732 374.608 87.6061 374.898C88.9051 375.477 90.204 376.057 91.6473 376.491C93.2349 376.781 94.6781 377.07 96.1214 377.07Z" fill="white" fill-opacity="0.2"/>
<path d="M120.368 414.873C120.368 414.438 120.513 414.004 120.513 413.569C120.513 413.135 120.513 412.845 120.513 412.41C120.513 411.976 120.368 411.686 120.368 411.252C119.791 408.21 118.059 405.893 116.183 404.589C115.317 403.865 114.307 403.431 113.441 403.141C112.575 402.851 111.853 402.706 111.131 402.562C110.41 402.562 109.977 402.562 109.688 402.562C109.399 402.562 109.111 402.562 109.111 402.562C109.111 402.562 109.255 402.562 109.688 402.706C109.977 402.706 110.554 402.996 111.131 403.141C111.709 403.431 112.43 403.72 113.152 404.155C113.874 404.589 114.595 405.169 115.317 405.893C116.76 407.341 117.915 409.369 118.203 411.831C118.203 412.121 118.203 412.41 118.203 412.7C118.203 412.99 118.203 413.279 118.203 413.714C118.059 414.293 118.059 414.873 117.915 415.452C117.626 416.611 116.904 417.624 116.039 418.493C115.173 419.362 114.162 419.942 113.008 420.376C112.43 420.521 111.853 420.666 111.276 420.666H110.41C110.121 420.666 109.688 420.666 109.399 420.666C108.245 420.521 107.09 420.231 106.08 419.652C105.07 419.218 104.204 418.493 103.482 417.769C102.76 417.045 102.183 416.321 101.75 415.597C101.317 414.873 101.029 414.148 100.74 413.714C100.596 413.135 100.307 412.7 100.307 412.266C100.163 411.976 100.163 411.831 100.163 411.831C100.163 411.831 100.163 411.976 100.163 412.41C100.163 412.7 100.163 413.279 100.163 413.859C100.307 414.438 100.451 415.307 100.74 416.176C101.029 417.045 101.606 417.914 102.327 418.783C103.049 419.652 103.915 420.521 105.07 421.245C106.224 421.969 107.523 422.549 109.111 422.838C109.399 422.838 109.832 422.983 110.121 422.983C110.554 422.983 110.843 422.983 111.276 422.983C111.709 422.983 111.997 422.983 112.43 422.838C112.863 422.694 113.152 422.694 113.585 422.549C115.173 422.114 116.616 421.245 117.77 420.087C118.925 418.928 119.791 417.48 120.224 415.886C120.224 415.742 120.224 415.307 120.368 414.873Z" fill="white" fill-opacity="0.2"/>
<path d="M39.978 428.921C40.844 428.777 41.8543 428.632 42.5759 428.052C43.4418 427.618 44.1635 427.039 44.7408 426.314C45.3181 425.59 45.8954 424.721 46.184 423.852C46.4727 422.983 46.617 421.969 46.4727 421.1C46.3284 420.231 46.0397 419.362 45.6067 418.638C45.1738 417.914 44.5965 417.479 43.8748 417.045C42.5759 416.321 41.4213 416.321 40.6996 416.321C40.2667 416.321 39.978 416.466 39.8337 416.466C39.6894 416.466 39.545 416.61 39.545 416.61C39.545 416.61 39.6894 416.61 39.8337 416.61C39.978 416.61 40.2667 416.61 40.6996 416.755C41.4213 416.9 42.4316 417.19 43.2975 417.914C44.1635 418.638 44.8851 419.797 44.8851 421.245C44.8851 421.969 44.7408 422.694 44.5965 423.273C44.3078 423.997 44.0191 424.576 43.4418 425.156C42.4316 426.314 41.1326 427.039 39.6894 427.328C39.2564 427.473 38.9677 427.473 38.6791 427.473C38.3904 427.473 37.9574 427.473 37.6688 427.328C37.0915 427.183 36.5142 426.894 35.9369 426.604C34.9266 426.025 34.3493 425.011 34.0606 424.432C33.772 423.707 33.772 423.273 33.772 423.273C33.772 423.273 33.772 423.418 33.772 423.563C33.772 423.707 33.772 424.142 33.772 424.432C33.9163 425.156 34.205 426.314 35.3596 427.328C35.9369 427.763 36.5142 428.197 37.3801 428.487C37.8131 428.632 38.2461 428.777 38.6791 428.777C39.112 428.921 39.6894 428.921 39.978 428.921Z" fill="white" fill-opacity="0.2"/>
<path d="M110.698 375.332C110.843 375.188 110.843 375.188 110.843 375.188C110.843 375.188 110.843 375.188 110.698 375.332C110.41 375.332 110.121 375.332 109.832 375.622C109.544 375.912 109.255 376.201 108.966 376.781C108.822 377.36 108.678 377.939 108.822 378.664C108.966 379.388 109.255 379.967 109.688 380.691C109.832 380.981 110.121 381.271 110.41 381.56C110.698 381.85 110.843 381.995 111.276 382.429C112.43 383.443 113.874 384.312 115.605 384.747C116.471 384.891 117.337 385.036 118.203 385.036C118.636 385.036 119.069 385.036 119.502 384.891C119.791 384.891 119.935 384.747 120.224 384.747C120.513 384.602 120.657 384.602 120.801 384.457C121.667 384.022 122.389 383.298 122.677 382.429C122.966 381.56 122.822 380.691 122.533 380.112C121.956 378.808 121.234 378.229 120.657 377.795C120.368 377.65 120.08 377.505 119.935 377.36C119.791 377.215 119.647 377.215 119.647 377.215C119.647 377.215 119.647 377.36 119.791 377.505C119.935 377.65 120.08 377.939 120.224 378.229C120.513 378.808 120.946 379.677 121.09 380.546C121.09 380.981 121.09 381.415 120.801 381.85C120.657 382.14 120.224 382.429 119.791 382.574C119.647 382.719 119.502 382.719 119.358 382.719C119.214 382.719 119.069 382.719 118.925 382.719C118.636 382.719 118.348 382.719 118.059 382.719C117.482 382.719 116.76 382.574 116.183 382.429C115.605 382.284 114.884 381.995 114.307 381.705C113.729 381.415 113.152 381.126 112.575 380.691C112.43 380.546 111.997 380.257 111.853 380.112C111.709 379.967 111.42 379.677 111.276 379.533C110.843 379.098 110.554 378.664 110.41 378.229C109.977 377.36 109.977 376.636 110.265 376.057C110.41 375.767 110.698 375.477 110.698 375.332Z" fill="white" fill-opacity="0.2"/>
<path d="M42.4316 471.938C41.7099 470.924 40.844 470.345 40.2667 469.911C39.978 469.766 39.6894 469.621 39.545 469.621C39.4007 469.621 39.2564 469.476 39.2564 469.476C39.2564 469.476 39.545 469.766 39.978 470.2C40.411 470.635 40.9883 471.504 41.4213 472.373C41.8543 473.387 42.2872 474.545 42.2872 475.849C42.2872 476.139 42.2872 476.573 42.1429 476.718C42.1429 476.863 41.9986 477.152 41.9986 477.297C41.9986 477.442 41.9986 477.587 41.8543 477.587C41.5656 478.166 41.2769 478.456 40.844 478.601C40.411 478.746 39.8337 478.746 39.2564 478.601C38.9677 478.456 38.6791 478.311 38.3904 478.311L37.9574 478.021L37.5245 477.732C36.5142 477.008 35.6482 475.994 35.2152 474.98C34.6379 474.111 34.3493 473.097 34.205 472.518C34.0606 471.938 34.0606 471.504 34.0606 471.504C34.0606 471.504 34.0606 471.649 33.9163 471.793C33.9163 471.938 33.772 472.228 33.772 472.518C33.772 473.242 33.772 474.256 34.205 475.414C34.6379 476.573 35.3596 477.877 36.5142 478.89L36.9472 479.325L37.3801 479.615C37.6688 479.904 38.1018 480.049 38.5347 480.194C39.4007 480.484 40.411 480.628 41.4213 480.194C42.4316 479.904 43.1532 479.035 43.5862 478.166C43.7305 478.021 43.7305 477.732 43.8748 477.442C43.8748 477.152 43.8748 477.008 44.0191 476.863C44.0191 476.283 44.0191 475.994 44.0191 475.559C43.8748 474.256 43.1532 472.952 42.4316 471.938Z" fill="white" fill-opacity="0.2"/>
<path d="M34.3496 467.013C34.4939 466.289 34.3496 465.71 34.3496 465.13C34.2053 462.813 33.195 460.785 32.1847 459.337C31.6074 458.613 31.1744 458.033 30.5971 457.454C30.0198 457.02 29.5868 456.585 29.1538 456.295C28.7209 456.006 28.4322 455.861 28.1436 455.716C27.8549 455.571 27.7106 455.571 27.7106 455.571C27.7106 455.571 27.8549 455.716 27.9992 455.861C28.2879 456.006 28.4322 456.295 28.8652 456.585C29.5868 457.309 30.4528 458.468 31.1744 459.916C31.896 461.365 32.6177 463.248 32.6177 465.275C32.6177 465.71 32.6177 466.289 32.4733 466.724C32.4733 467.013 32.329 467.303 32.329 467.448C32.1847 467.593 32.1847 467.882 32.0404 468.027C31.6074 468.896 31.0301 469.476 30.1641 469.765C29.2982 470.055 28.2879 470.055 27.4219 469.765C26.9889 469.62 26.556 469.476 26.123 469.186L25.4014 468.751L24.824 468.317C23.2365 467.158 22.0818 465.565 21.2159 464.117C20.7829 463.392 20.4943 462.668 20.3499 462.089C20.2056 461.51 20.2056 460.93 20.0613 460.496C20.0613 460.061 19.9169 459.627 19.9169 459.337C19.9169 459.047 19.9169 458.903 19.9169 458.903C19.9169 458.903 19.9169 459.047 19.7726 459.337C19.7726 459.627 19.6283 460.061 19.6283 460.496C19.6283 461.075 19.6283 461.654 19.7726 462.379C19.9169 463.103 20.0613 463.972 20.3499 464.696C20.9272 466.434 22.0818 468.317 23.8138 469.765L24.5354 470.345L25.257 470.779C25.8343 471.069 26.2673 471.358 26.9889 471.648C28.1436 472.083 29.5868 472.227 31.0301 471.793C32.329 471.358 33.4836 470.2 33.9166 468.896C34.0609 468.606 34.2053 468.317 34.2053 467.882C34.2053 467.593 34.3496 467.303 34.3496 467.013Z" fill="white" fill-opacity="0.2"/>
<path d="M79.3797 403.141C80.5343 399.954 83.7095 398.216 91.0701 397.202C98.4308 396.188 106.657 400.823 115.894 399.23C125.853 397.492 114.451 394.885 102.616 391.264C90.9258 387.643 90.2042 391.699 81.1116 390.54C72.1634 389.381 67.5449 391.409 66.246 396.768C65.6687 399.375 55.4215 395.319 55.4215 400.244C55.4215 402.851 56.7204 405.748 63.2151 408.644C69.4212 411.541 78.2251 406.327 79.3797 403.141Z" fill="white" fill-opacity="0.2"/>
<path d="M33.0508 451.081C34.9271 450.792 35.9374 448.185 35.3601 445.288C34.7827 442.391 32.9065 440.363 31.0303 440.798C29.154 441.088 28.1437 443.695 28.721 446.591C29.2983 449.488 31.1746 451.371 33.0508 451.081Z" fill="white" fill-opacity="0.2"/>
<path d="M36.9474 456.875C37.8133 456.73 38.3906 455.426 38.102 453.978C37.8133 452.53 36.8031 451.516 35.9371 451.661C35.0711 451.806 34.4938 453.109 34.7825 454.557C35.0711 456.006 36.0814 457.02 36.9474 456.875Z" fill="white" fill-opacity="0.2"/>
<path d="M43.7305 468.606C43.0089 469.041 43.1532 470.344 43.8749 471.358C44.5965 472.372 45.7511 472.806 46.3284 472.372C47.05 471.937 46.9057 470.634 46.1841 469.62C45.4625 468.606 44.3078 468.172 43.7305 468.606Z" fill="white" fill-opacity="0.2"/>
<path d="M80.2455 467.883C77.5033 468.317 75.4828 470.634 75.9157 473.097C76.3487 475.414 78.9466 477.007 81.6888 476.428C84.431 475.993 86.4516 473.676 86.0186 471.214C85.5856 468.896 82.9877 467.448 80.2455 467.883Z" fill="white" fill-opacity="0.2"/>
<path d="M71.5862 467.303C70.1429 467.593 69.2769 468.751 69.4213 469.91C69.5656 471.069 70.8645 471.793 72.3078 471.648C73.7511 471.358 74.617 470.2 74.4727 469.041C74.184 467.882 72.8851 467.158 71.5862 467.303Z" fill="white" fill-opacity="0.2"/>
<path d="M77.9363 463.537C76.7816 463.682 76.06 464.696 76.2043 465.709C76.3487 466.723 77.5033 467.303 78.5136 467.013C79.6682 466.868 80.3898 465.854 80.2455 464.84C80.1011 463.827 79.0909 463.247 77.9363 463.537Z" fill="white" fill-opacity="0.2"/>
<path d="M91.9357 401.403C89.1934 399.23 85.2966 399.375 83.2761 401.982C81.1112 404.589 81.5442 408.5 84.2864 410.672C87.0286 412.845 90.9254 412.7 92.9459 410.093C95.1108 407.486 94.6779 403.72 91.9357 401.403Z" fill="white" fill-opacity="0.2"/>
<path d="M96.8435 401.258C95.8333 402.416 95.9776 404.299 97.2765 405.313C98.5755 406.327 100.452 406.182 101.462 405.023C102.472 403.865 102.328 401.982 101.029 400.968C99.7301 399.954 97.8538 400.099 96.8435 401.258Z" fill="white" fill-opacity="0.2"/>
<path d="M120.368 433.122C119.069 434.281 118.78 436.163 119.646 437.322C120.657 438.481 122.388 438.481 123.832 437.322C125.131 436.163 125.419 434.281 124.553 433.122C123.543 431.963 121.667 431.963 120.368 433.122Z" fill="white" fill-opacity="0.2"/>
<path d="M92.3689 439.06C93.8122 439.495 95.1111 438.77 95.5441 437.612C95.8328 436.453 95.1112 435.15 93.6679 434.86C92.2246 434.425 90.9257 435.15 90.4927 436.308C90.0597 437.467 90.9257 438.626 92.3689 439.06Z" fill="white" fill-opacity="0.2"/>
<path d="M16.8857 417.045C18.4733 417.625 20.4939 416.031 21.2155 413.569C22.0815 411.107 21.3599 408.645 19.7723 408.065C18.1847 407.486 16.1641 409.079 15.4425 411.542C14.5765 414.004 15.2981 416.466 16.8857 417.045Z" fill="white" fill-opacity="0.2"/>
<path d="M21.9375 399.23C21.5045 400.389 21.9375 401.402 22.6592 401.692C23.3808 401.982 24.2467 401.258 24.6797 400.099C25.1127 398.94 24.6797 397.926 23.9581 397.637C23.2365 397.347 22.3705 398.071 21.9375 399.23Z" fill="white" fill-opacity="0.2"/>
<path d="M21.0718 403.72C21.5047 402.272 21.2161 400.824 20.2058 400.534C19.3398 400.244 18.1852 401.113 17.6079 402.562C17.1749 404.01 17.4636 405.458 18.4739 405.748C19.4842 406.038 20.6388 405.169 21.0718 403.72Z" fill="white" fill-opacity="0.2"/>
<path d="M66.1016 372.436C70.1428 371.422 72.885 368.815 72.3077 366.787C71.7304 364.759 68.1222 363.89 64.0811 364.904C60.0399 365.918 57.2977 368.525 57.875 370.553C58.4523 372.581 62.2048 373.45 66.1016 372.436Z" fill="white" fill-opacity="0.2"/>
<path d="M56.5764 374.608C54.7002 375.477 53.6899 377.071 54.1229 378.084C54.5559 379.098 56.4321 379.098 58.3084 378.229C60.1846 377.36 61.1949 375.767 60.7619 374.753C60.1846 373.739 58.3084 373.594 56.5764 374.608Z" fill="white" fill-opacity="0.2"/>
<path d="M131.048 392.278C129.461 393.727 130.327 397.347 133.213 400.389C135.955 403.431 139.564 404.734 141.151 403.286C142.739 401.837 141.873 398.216 138.986 395.175C136.244 392.133 132.636 390.83 131.048 392.278Z" fill="white" fill-opacity="0.2"/>
<path d="M82.4101 388.368C86.5955 388.223 89.915 386.051 89.7707 383.588C89.6264 381.126 86.3069 379.243 82.1214 379.388C77.9359 379.533 74.6164 381.706 74.7608 384.168C74.9051 386.63 78.2246 388.513 82.4101 388.368Z" fill="white" fill-opacity="0.2"/>
<path d="M71.4418 389.671C73.1737 389.671 74.617 388.657 74.617 387.644C74.617 386.63 73.1737 385.761 71.2975 385.905C69.5656 385.905 68.1223 386.919 68.1223 387.933C68.2666 388.947 69.7099 389.816 71.4418 389.671Z" fill="white" fill-opacity="0.2"/>
<path d="M133.791 389.236C134.512 388.512 133.935 386.629 132.492 385.181C131.048 383.732 129.172 383.153 128.451 384.022C127.729 384.746 128.306 386.629 129.75 388.077C131.193 389.526 133.069 390.105 133.791 389.236Z" fill="white" fill-opacity="0.2"/>
<path d="M4.9071 406.327C5.48441 404.879 5.91738 403.43 6.63902 401.982C7.79363 398.941 9.38122 395.899 11.1131 392.857C12.8451 389.816 14.8656 386.774 17.0305 383.878C19.1954 380.981 21.649 378.084 24.3912 375.477C26.989 372.87 29.8756 370.408 32.7621 368.091C35.6486 365.918 38.6795 363.89 41.7103 362.152C44.7412 360.414 47.7721 358.966 50.8029 357.662C52.2462 356.938 53.8338 356.504 55.1327 355.924C56.576 355.49 58.0192 354.911 59.3182 354.621C62.0604 353.897 64.5139 353.173 66.8231 352.738C67.9778 352.593 68.988 352.304 69.9983 352.159C71.0086 352.014 71.8746 351.869 72.7405 351.724C74.3281 351.435 75.7714 351.435 76.6373 351.29C77.5033 351.145 78.0806 351.145 78.0806 351.145C78.0806 351.145 77.6476 351.145 76.6373 351.145C75.7714 351.145 74.4725 351 72.7405 351C71.8746 351 71.0086 351 69.9983 351C68.988 351.145 67.8334 351.145 66.6788 351.29C64.3696 351.579 61.6274 351.869 58.8852 352.448C57.4419 352.738 55.9987 353.173 54.4111 353.462C52.9678 353.897 51.3802 354.331 49.7926 354.911C46.6174 355.924 43.4423 357.373 40.1228 359.111C36.9476 360.849 33.6281 362.732 30.4529 365.049C27.422 367.222 24.3912 369.829 21.649 372.58C18.9068 375.332 16.3089 378.374 13.9997 381.56C11.6904 384.747 9.8142 387.933 8.08228 391.264C6.49469 394.595 5.05143 397.782 3.89681 400.968C3.31951 402.561 2.88653 404.155 2.45355 405.603C2.02057 407.196 1.73192 408.645 1.44326 410.093C0.865959 412.99 0.432979 415.597 0.288653 417.914C0.144326 418.928 0.144326 420.087 0 421.1C0 422.114 0 423.128 0 423.852C0 425.59 0.144326 426.894 0.144326 427.763C0.144326 428.632 0.144326 429.211 0.144326 429.211C0.144326 429.211 0.144326 428.777 0.288653 427.908C0.432979 427.039 0.432979 425.735 0.721632 423.997C0.865959 423.128 1.01029 422.259 1.15461 421.245C1.29894 420.231 1.58759 419.218 1.73192 418.059C2.1649 415.741 2.7422 413.279 3.60816 410.527C4.04114 409.079 4.47412 407.776 4.9071 406.327Z" fill="white" fill-opacity="0.2"/>
</svg>
